<?xml version="1.0" encoding="utf-8"?>
<!-- Generator: Adobe Illustrator 21.0.0, SVG Export Plug-In . SVG Version: 6.00 Build 0)  -->
<svg version="1.1" id="Capa_1" xmlns="http://www.w3.org/2000/svg" xmlns:xlink="http://www.w3.org/1999/xlink" x="0px" y="0px"
	 viewBox="0 0 400 400" style="enable-background:new 0 0 400 400;" xml:space="preserve">
<style type="text/css">
	.st0{fill:#FFFFFF;}
</style>
<path class="st0" d="M386.7,133.1L386.7,133.1c-18.9-50.1-55.8-90.3-104-113.3c-48.2-23-101.8-26-151.1-8.5
	c-49.7,17.6-89,54-110.7,102.4C-0.8,162-2.3,216.4,16.7,266.9c3.7,9.7,8.1,19.2,13.2,28.4L0,380.8L88.4,361
	c10.1,7.4,21,13.8,32.4,19.2c27.5,13.1,56.8,19.8,86.1,19.8c22,0,43.9-3.7,65-11.2c49.6-17.6,89-54,110.7-102.4
	C404.3,238,405.8,183.6,386.7,133.1z M366.7,278.8c-19.7,43.8-55.3,76.7-100.3,92.7c-45,16-94.1,13.2-138.2-7.9
	c-12-5.8-23.4-12.8-33.9-20.8l-4.7-3.6l-62.1,17.8l23.7-60.9l-3.2-5.4c-5.9-9.8-10.9-20.1-14.9-30.7c-17.3-45.8-16-95.1,3.7-138.8
	c19.7-43.8,55.3-76.7,100.3-92.7c45-16,94.1-13.2,138.1,7.9c44.1,21.1,77.9,57.8,95.1,103.6C387.7,185.7,386.4,235,366.7,278.8z"/>
<path class="st0" d="M247.3,247.9c-3.1-3.2-8-3.7-11.6-1.2l-9.7,6.9c-2.8,2-4.5,5.4-4.3,8.9l0.1,2.7c-8.2-1.9-15.5-6.9-20.2-14.1
	l-24.4-37.3L155.4,175c-4.2-7.5-5.5-16.4-3.5-24.9l2.3,1.3c3,1.7,6.7,1.6,9.7-0.1l10.2-6c3.8-2.2,5.5-7,4-11.2l-15.5-44.5
	c-1.7-4.9-6.4-7.9-11.4-7.3l-10.8,1.3c-3.4,0.4-6.6,2-9,4.5l-10.6,10.9c-5.7,5.9-9.1,13.7-9.6,21.9c-1.1,19.4,3,42.7,12,67.2
	c5.6,15.2,13.1,30.8,22.4,46.2c9.3,15.4,19.7,29.2,30.5,41c17.4,19,36,33,53.4,40.5c7.4,3.2,15.7,3.4,23.3,0.7l14.2-5.1
	c3.2-1.2,6-3.4,7.9-6.4l5.8-9.5c2.7-4.4,2.1-10.1-1.4-13.8L247.3,247.9z"/>
</svg>
