<?xml version="1.0" encoding="utf-8"?>
<!-- Generator: Adobe Illustrator 21.0.0, SVG Export Plug-In . SVG Version: 6.00 Build 0)  -->
<svg version="1.1" id="Capa_1" xmlns="http://www.w3.org/2000/svg" xmlns:xlink="http://www.w3.org/1999/xlink" x="0px" y="0px"
	 viewBox="0 0 400 400" style="enable-background:new 0 0 400 400;" xml:space="preserve">
<style type="text/css">
	.st0{fill:#FFFFFF;}
</style>
<g>
	<path class="st0" d="M172.5,127.1c6.3-7.5,9.8-12.4,7.1-16.4c-9.8-14.7-17.9-26.9-27.7-41.6c-2.5-3.7-11.3-6.1-18.6-3.5
		c-8.9,3.3-16.1,7-16.1,7c14.5,21.7,28.9,43.3,43.3,65C165,135,168.1,132.3,172.5,127.1z"/>
	<path class="st0" d="M233.7,269.9C234.1,269.4,234.3,269.1,233.7,269.9C232.6,271.1,233.2,270.5,233.7,269.9
		c-5.5,6.5-4.8,15-15,15.6c-8,0.5-11.8-5.5-16.4-11c-14.7-17.6-27.5-36.7-40.2-55.8c-10.9-16.6-24.8-35-31.7-53.8
		c-2.3-6.3-3.7-15.1,3.7-19.4c6.4-3.7,14.7,0.7,21.1-4.4c-14.4-21.7-28.9-43.5-43.3-65.2c-60.1,45-18.6,125.6,14,174.7
		c32.5,49.1,90.8,118.6,155.5,80.7c-14.4-21.8-28.8-43.5-43.2-65.3C236.4,266.9,234.9,268.3,233.7,269.9z"/>
	<path class="st0" d="M275.5,255.6c-2.6-3.9-8.4-2.7-17.8,0.2c-6.4,2-10.1,3.8-14.4,6.9c14.4,21.7,28.7,43.5,43.1,65.2
		c0,0,6.2-5.2,12.7-12.1c5.3-5.7,6.5-14.8,4-18.5C293.3,282.6,285.2,270.3,275.5,255.6z"/>
	<path class="st0" d="M398.1,172.2c-7.4-52.9-35-99.7-77.7-131.9C277.7,8.1,225.1-5.5,172.2,1.9C119.3,9.4,72.4,37,40.3,79.6
		C8.1,122.3-5.5,174.9,1.9,227.8c7.4,52.9,35,99.7,77.7,131.9c42.7,32.2,95.3,45.8,148.2,38.3c52.9-7.4,99.7-35,131.9-77.7
		C391.9,277.7,405.5,225.1,398.1,172.2z M224.7,375.8c-96.9,13.6-186.9-54.2-200.5-151.1C10.6,127.8,78.4,37.8,175.3,24.2
		c96.9-13.6,186.9,54.2,200.5,151.1C389.4,272.2,321.6,362.2,224.7,375.8z"/>
</g>
</svg>
