<?xml version="1.0" encoding="utf-8"?>
<!-- Generator: Adobe Illustrator 19.0.0, SVG Export Plug-In . SVG Version: 6.00 Build 0)  -->
<svg version="1.1" id="Capa_1" xmlns="http://www.w3.org/2000/svg" xmlns:xlink="http://www.w3.org/1999/xlink" x="0px" y="0px"
	 viewBox="0 0 50 50" style="enable-background:new 0 0 50 50;" xml:space="preserve">
<style type="text/css">
	.st0{fill:#95C11F;}
</style>
<path id="XMLID_2_" class="st0" d="M42.7,7.3C37.9,2.6,31.7,0,25,0C18.3,0,12,2.6,7.3,7.3S0,18.3,0,25c0,6.7,2.6,13,7.3,17.7
	C12,47.4,18.3,50,25,50c6.7,0,13-2.6,17.7-7.3c4.7-4.7,7.3-11,7.3-17.7C50,18.3,47.4,12,42.7,7.3z M42.4,39.9c0-0.4,0-0.7-0.1-1.1
	c-0.1-1-0.8-2.2-1.6-2.8c-1.4-1.1-2.9-1.9-4.5-2.8c-1.9-1-4-1.4-5.5-3.1c-0.7-0.8-0.7-1.7-0.6-3c0.1-1.2,0.3-2.3,0.6-2.7
	c0.2-0.7,0.5,0.6,1.2-0.8c0.5-1,1-2,1.2-3.1c0.2-0.9,0.3-1.8-0.7-2c0.8-3,0.3-5.3-1.5-7.6c-1.9-2.4-4.6-2.6-7.4-2.7
	c0.2-0.2,1.1-0.3,1.3-0.4c-0.6,0-2.1,0.1-2.6,0.3c-0.2,0.1-0.5,0.1-0.7,0.2c-1.4,0.6-2.6,1.6-3.3,3c-1.3,2.3-0.9,5.1,0,7.6
	c-1,0.3-1,1.1-0.8,1.9c0.1,0.4,0.7,2.9,1,3.2c0.9,1.4,1.3,0.6,1.3,0.6c0.8,1.4,0.5,2.1,0.6,3.4c0,0.6,0.2,1.6-0.2,1.9
	c-0.8,0.8-1.8,1.6-2.9,2.1c-1.9,1-4,1.8-5.9,2.9c-1.7,1-3.4,2.3-3.7,4.4c0,0.2,0,0.4-0.1,0.7C4.1,35.9,2,30.7,2,25
	C2,12.3,12.3,2,25,2c12.7,0,23,10.3,23,23C48,30.7,45.9,35.9,42.4,39.9z"/>
</svg>
