<svg id="Capa_1" data-name="Capa 1" xmlns="http://www.w3.org/2000/svg" viewBox="0 0 397.76 397.72"><defs><style>.cls-1{fill:#fff;}</style></defs><title>icono_wats</title><path class="cls-1" d="M293,233.34c-2.38-1.18-9.4-4.61-16.38-8s-13.9-6.58-16.07-7.36-4.06-1.37-5.79-1.18-3.32,1.17-4.89,3.53-4.65,6.19-7.67,9.82-6,7.08-7.38,8.65a6.91,6.91,0,0,1-4.39,2.65c-1.63.2-3.51-.3-5.88-1.48s-7.39-3-14.08-6.56a123.68,123.68,0,0,1-24.11-16.81,130,130,0,0,1-17.45-19.23A150.26,150.26,0,0,1,160,184c-1.38-2.35-1.45-4.17-.88-5.69a11.75,11.75,0,0,1,3-3.92c1.07-1.06,2.26-2.44,3.48-3.89s2.46-3,3.65-4.35a22.42,22.42,0,0,0,2.67-3.8c.69-1.23,1.29-2.51,2.08-4.08a7.73,7.73,0,0,0,.84-4.42,11.13,11.13,0,0,0-1.25-3.82c-.59-1.18-3.26-7.56-6.28-14.83s-6.38-15.43-8.36-20.15-3.94-6.67-5.77-7.46-3.52-.4-4.91-.4-2.86-.1-4.4-.19-3.12-.19-4.7-.19a16.19,16.19,0,0,0-5.88,1.18,18.45,18.45,0,0,0-6.77,4.71,63.76,63.76,0,0,0-9.93,12.72A52.53,52.53,0,0,0,109.86,152c0,11.59,4.25,23,8.79,31.88a114,114,0,0,0,10.57,16.83,241.38,241.38,0,0,0,23.34,29.67c13.94,15,33.62,32,57.76,41.45s36.2,12.57,43.32,13.25,9.3-1.09,13.65-1.48,11.37-3.23,17.79-7.36,12.27-9.53,14.25-15a59.22,59.22,0,0,0,3.32-14.59c.35-4,.05-6.82-.54-7.8a8.19,8.19,0,0,0-3.22-2.6C297.36,235.4,295.39,234.52,293,233.34Z" transform="translate(-1.49 -1.14)"/><path class="cls-1" d="M256.68,286.51c-.95,0-2,0-3.16-.16-8.62-.83-22.49-5.07-43.66-13.33-20.27-7.92-39.85-22-58.22-41.77A234.08,234.08,0,0,1,129.2,202.9c-.48-.7-.82-1.21-1-1.42a115.74,115.74,0,0,1-10.69-17c-5.93-11.59-8.93-22.51-8.93-32.45a54.18,54.18,0,0,1,6.84-27.18,60,60,0,0,1,9.19-12l.91-1a19.69,19.69,0,0,1,7.23-5,17.33,17.33,0,0,1,6.35-1.27c1.67,0,3.4.11,4.78.2H144c1.48.09,2.87.18,4.17.18.31,0,.63,0,1,0a9.13,9.13,0,0,1,4.44.54c2.49,1.07,4.6,3.73,6.44,8.13,1.32,3.14,3.25,7.8,5.28,12.71l3.09,7.44c2.59,6.23,5.63,13.54,6.24,14.75a12.16,12.16,0,0,1,1.37,4.25,9.06,9.06,0,0,1-1,5.12l-.67,1.36c-.48,1-.93,1.89-1.43,2.78a23.73,23.73,0,0,1-2.82,4c-.8.92-1.62,1.91-2.44,2.9l-1.2,1.44c-1.1,1.32-2.39,2.82-3.56,4a10.73,10.73,0,0,0-2.66,3.47c-.32.85-.59,2.26.78,4.6A148.93,148.93,0,0,0,170,196.66a127.66,127.66,0,0,0,17.28,19,123.57,123.57,0,0,0,23.86,16.64c4.48,2.37,8.18,4,10.89,5.13,1.32.57,2.36,1,3.16,1.41,2.19,1.08,3.83,1.52,5.17,1.35A5.68,5.68,0,0,0,233.9,238c1.59-1.8,4.57-5.27,7.35-8.62,3.64-4.38,6.26-7.74,7.59-9.72,1.69-2.53,3.53-3.82,5.8-4.08a14.53,14.53,0,0,1,6.36,1.24c1.89.68,7.34,3.17,16.19,7.41,7,3.36,14.07,6.81,16.39,8h0c.93.46,1.8.88,2.61,1.27,1.26.61,2.35,1.13,3.31,1.65a9.51,9.51,0,0,1,3.7,3.06c.8,1.33,1.07,4.53.72,8.57a59.91,59.91,0,0,1-3.39,14.91c-2.53,7-10.33,12.83-14.75,15.67-6.51,4.18-13.72,7.14-18.37,7.55a25.5,25.5,0,0,0-3.81.71A26.87,26.87,0,0,1,256.68,286.51ZM139.11,108.11a15.08,15.08,0,0,0-5.42,1.09,17.18,17.18,0,0,0-6.31,4.39l-.93,1a57.82,57.82,0,0,0-8.83,11.49A51.69,51.69,0,0,0,111.12,152c0,9.54,2.91,20.07,8.66,31.3A113.15,113.15,0,0,0,130.23,200c.2.27.54.77,1.06,1.53a231.63,231.63,0,0,0,22.2,28c18.11,19.52,37.38,33.36,57.29,41.14,20.94,8.18,34.6,12.37,43,13.17a24.31,24.31,0,0,0,9.24-.72,27.86,27.86,0,0,1,4.17-.77c4.21-.37,11.13-3.25,17.23-7.16,7.07-4.54,12.08-9.79,13.74-14.4a57.36,57.36,0,0,0,3.25-14.27c.36-4.1,0-6.49-.36-7a7.11,7.11,0,0,0-2.75-2.15c-.9-.49-2-1-3.19-1.59-.81-.39-1.69-.81-2.63-1.28h0c-2.32-1.15-9.37-4.6-16.36-7.95-8.65-4.14-14.17-6.67-16-7.31a12.69,12.69,0,0,0-5.22-1.11c-1,.11-2.36.55-4,3-1.74,2.59-5.17,6.83-7.75,9.93-2.8,3.38-5.8,6.87-7.4,8.68a8.08,8.08,0,0,1-5.19,3.07c-1.85.22-3.95-.29-6.59-1.6-.74-.36-1.75-.8-3-1.35-2.74-1.18-6.5-2.79-11.07-5.22a126,126,0,0,1-24.35-17,130.12,130.12,0,0,1-17.63-19.42,151.46,151.46,0,0,1-9-13.5c-1.44-2.46-1.76-4.67-1-6.77a12.79,12.79,0,0,1,3.24-4.37c1.1-1.09,2.34-2.53,3.4-3.81l1.19-1.43c.83-1,1.67-2,2.47-2.94a21.29,21.29,0,0,0,2.53-3.59c.46-.83.88-1.67,1.37-2.66l.68-1.38a6.49,6.49,0,0,0,.71-3.71,9.75,9.75,0,0,0-1.12-3.39c-.51-1-2.4-5.48-6.32-14.92L163,128.27c-2-4.9-4-9.56-5.28-12.7-1.57-3.77-3.24-6-5.11-6.78a6.84,6.84,0,0,0-3.29-.34c-.39,0-.77,0-1.12,0-1.38,0-2.81-.09-4.33-.19h-.14C142.32,108.21,140.71,108.11,139.11,108.11Z" transform="translate(-1.49 -1.14)"/><path class="cls-1" d="M204.33,2.4a193.82,193.82,0,0,0-137,56.29A190.91,190.91,0,0,0,38.44,293.81L21,345.35,3.48,396.9l53.61-17,53.61-17a193.16,193.16,0,0,0,44.47,17.67,195.16,195.16,0,0,0,186.08-50,191.12,191.12,0,0,0,0-271.76A193.8,193.8,0,0,0,204.33,2.4Zm0,353.73a162.82,162.82,0,0,1-89.59-26.71l-31.28,9.94L52.18,349.3l10.17-30,10.17-30A160.34,160.34,0,0,1,89.24,80.38a163.47,163.47,0,0,1,230.16,0,160.43,160.43,0,0,1,0,228.38A163,163,0,0,1,204.33,356.13Z" transform="translate(-1.49 -1.14)"/><path class="cls-1" d="M1.49,398.86,37.05,294A192.39,192.39,0,0,1,66.49,57.79a196,196,0,0,1,275.66,0,192.38,192.38,0,0,1,0,273.56A194.4,194.4,0,0,1,204.33,388a196.92,196.92,0,0,1-49.46-6.28,194.63,194.63,0,0,1-44.29-17.52ZM204.33,3.66A191.91,191.91,0,0,0,68.27,59.58,189.65,189.65,0,0,0,39.51,293.15l.31.5L5.48,394.94l105.36-33.48.47.26a192.1,192.1,0,0,0,44.18,17.55,194.43,194.43,0,0,0,48.83,6.2,191.89,191.89,0,0,0,136-55.92,189.86,189.86,0,0,0,0-270A191.89,191.89,0,0,0,204.33,3.66Zm0,353.73a164.08,164.08,0,0,1-89.78-26.59L50.18,351.26l20.92-61.74a161.6,161.6,0,0,1,17.24-210,164.73,164.73,0,0,1,231.94,0,161.69,161.69,0,0,1,0,230.17A163.6,163.6,0,0,1,204.33,357.39ZM114.93,328l.5.33a162.25,162.25,0,0,0,203.08-20.5,159.16,159.16,0,0,0,0-226.59,162.21,162.21,0,0,0-228.38,0,159,159,0,0,0-16.6,207.29l.39.53L54.17,347.34Z" transform="translate(-1.49 -1.14)"/></svg>