<?xml version="1.0" encoding="utf-8"?>
<!-- Generator: Adobe Illustrator 19.0.0, SVG Export Plug-In . SVG Version: 6.00 Build 0)  -->
<svg version="1.1" id="Capa_1" xmlns="http://www.w3.org/2000/svg" xmlns:xlink="http://www.w3.org/1999/xlink" x="0px" y="0px"
	 viewBox="0 0 50 50" style="enable-background:new 0 0 50 50;" xml:space="preserve">
<style type="text/css">
	.st0{fill:#262626;}
	.st1{fill:#FFFFFF;}
	.st2{fill-rule:evenodd;clip-rule:evenodd;fill:#FFFFFF;}
</style>
<path class="st0" d="M24.2,356.5c5,0,9.5,5.5,12.7,14.5c3.3,9,5.3,21.3,5.3,35c0,13.7-2,26-5.3,35c-3.3,9-7.8,14.5-12.7,14.5
	c-5,0-9.5-5.5-12.7-14.5c-3.3-9-5.3-21.3-5.3-35c0-13.7,2-26,5.3-35C14.7,362,19.2,356.5,24.2,356.5L24.2,356.5z M35.9,373.7
	c-3-8.3-7.2-13.4-11.7-13.4c-4.6,0-8.7,5.1-11.7,13.4c-3,8.3-4.9,19.7-4.9,32.3c0,12.6,1.9,24,4.9,32.3c3,8.3,7.1,13.4,11.7,13.4
	c4.6,0,8.7-5.1,11.7-13.4c3-8.3,4.9-19.7,4.9-32.3C40.7,393.4,38.9,382,35.9,373.7L35.9,373.7z"/>
<g id="XMLID_11_">
	<path id="XMLID_18_" class="st1" d="M25,0c6.9,0,13.2,2.8,17.7,7.3C47.2,11.8,50,18.1,50,25c0,6.9-2.8,13.2-7.3,17.7
		C38.2,47.2,31.9,50,25,50c-6.9,0-13.2-2.8-17.7-7.3C2.8,38.2,0,31.9,0,25c0-6.9,2.8-13.2,7.3-17.7C11.8,2.8,18.1,0,25,0L25,0z
		 M41.3,8.7C37.1,4.5,31.4,2,25,2C18.6,2,12.9,4.5,8.7,8.7C4.5,12.9,2,18.6,2,25c0,6.4,2.6,12.1,6.8,16.3C12.9,45.5,18.6,48,25,48
		c6.4,0,12.1-2.6,16.3-6.7C45.5,37.1,48,31.4,48,25C48,18.6,45.5,12.9,41.3,8.7L41.3,8.7z"/>
	<path id="XMLID_12_" class="st2" d="M18.6,25c0-3.5,2.9-6.4,6.4-6.4c3.5,0,6.4,2.9,6.4,6.4c0,3.5-2.9,6.4-6.4,6.4
		C21.5,31.4,18.6,28.5,18.6,25L18.6,25z M31.6,12.5H18.4c-3.3,0-5.9,2.7-5.9,5.9v13.2c0,3.3,2.7,5.9,5.9,5.9h13.2
		c3.3,0,5.9-2.7,5.9-5.9V18.4C37.5,15.1,34.9,12.5,31.6,12.5L31.6,12.5z M18.4,14h13.2c2.5,0,4.4,2,4.4,4.4v13.2
		c0,2.4-2,4.4-4.4,4.4H18.4c-2.5,0-4.4-2-4.4-4.4V18.4C14,15.9,15.9,14,18.4,14L18.4,14z M32.9,15.8c-0.7,0-1.3,0.6-1.3,1.3
		c0,0.7,0.6,1.3,1.3,1.3c0.7,0,1.3-0.6,1.3-1.3C34.2,16.4,33.7,15.8,32.9,15.8L32.9,15.8z M33.1,25c0-4.5-3.6-8.1-8.1-8.1
		c-4.5,0-8.1,3.6-8.1,8.1c0,4.5,3.6,8.1,8.1,8.1C29.5,33.1,33.1,29.5,33.1,25L33.1,25z"/>
</g>
</svg>
