<?xml version="1.0" encoding="utf-8"?>
<!-- Generator: Adobe Illustrator 19.0.0, SVG Export Plug-In . SVG Version: 6.00 Build 0)  -->
<svg version="1.1" id="Capa_1" xmlns="http://www.w3.org/2000/svg" xmlns:xlink="http://www.w3.org/1999/xlink" x="0px" y="0px"
	 viewBox="0 0 200 200" style="enable-background:new 0 0 200 200;" xml:space="preserve">
<style type="text/css">
	.st0{fill:#FFFFFF;}
</style>
<path id="XMLID_10_" class="st0" d="M100.8,200c45.8,0,73.2-17.6,73.2-47.2c0-15.7-8-33.1-21.4-46.5c-7.1-7.1-15.1-12.6-23.8-16.5
	c0.5-1.3,0.7-2.7,0.7-4.1c0-3.5-1.1-6.6-3.1-9.1c2-2.5,3-5.3,3.1-8.3c0-3.5-1.1-6.6-3.1-9.1c2-2.5,3-5.3,3.1-8.3
	c0-3.9-1.4-7.5-3.9-10.1c-0.7-0.7-1.5-1.3-2.3-1.8l6.1-19.8l0-0.1l0-0.1c1.1-6-2-12.1-7.5-14.8c-5.5-2.7-15-4.2-21.1-4.2
	c-8.2,0-17.5,2.4-21.1,4.2c-5.5,2.7-8.6,8.8-7.5,14.8l0,0.1l0,0.1L78.4,39c-0.9,0.5-1.6,1.1-2.3,1.8c-2.6,2.6-3.9,6.1-3.9,10.1
	c0,2.9,1.1,5.8,3.1,8.3c-2,2.5-3.1,5.7-3.1,9.1c0,2.9,1.1,5.8,3.1,8.3c-2,2.5-3.1,5.7-3.1,9.1c0,1.4,0.3,2.7,0.7,4.1
	c-8.7,3.8-16.7,9.4-23.8,16.5c-13.4,13.4-21.4,30.8-21.4,46.5C27.6,182.4,55,200,100.8,200z M74.6,18.5c-0.9-5,1.6-10,6.2-12.2
	c3-1.5,11.9-3.9,20-3.9c6,0,14.9,1.4,20,3.9c4.5,2.2,7.1,7.2,6.2,12.2l-6.5,21.1l6.2-20.9c0-0.1,0-0.2,0.1-0.2
	c0.9-4.8-1.6-9.7-6-11.9c-4.5-2.2-13.2-3.9-19.9-3.9c-6.7,0-15.5,1.7-19.9,3.9c-4.4,2.2-6.9,7.1-6,11.9c0,0.1,0,0.2,0.1,0.2l6.2,21
	L74.6,18.5z M120.3,63.4c1.2,1.2,1.8,2.9,1.8,4.8c0,2.3-1.5,4.6-4.6,6.4c-0.8,0.5-1.8,0.9-2.9,1.3c-3.4,1.3-7.9,2.1-13.8,2.1
	c-5.9,0-10.4-0.8-13.8-2.1c-1.1-0.4-2-0.8-2.9-1.3c-3.1-1.8-4.6-4.1-4.6-6.4c0-1.9,0.6-3.7,1.8-4.8c0.6-0.6,1.3-1,2.1-1.2
	c0.4,0.2,0.9,0.4,1.3,0.6c3.7,2.2,11.1,2.6,16.1,2.6c5,0,12.4-0.4,16.1-2.6c0.5-0.2,0.9-0.4,1.3-0.6C119,62.5,119.7,62.9,120.3,63.4
	z M120.3,80.8c1.2,1.2,1.8,2.9,1.8,4.8c0,1.3-0.5,2.6-1.5,3.9c-0.5,0.7-1.2,1.3-2.1,1.9c-0.9,0.6-1.8,1.2-3,1.7
	c-3.4,1.4-8.2,2.4-14.5,2.4c-0.1,0-0.1,0-0.2,0c-0.1,0-0.1,0-0.2,0c-6.3,0-11.1-0.9-14.5-2.4c-1.2-0.5-2.2-1.1-3-1.7
	c-0.8-0.6-1.5-1.2-2.1-1.9c-1-1.2-1.5-2.5-1.5-3.9c0-1.9,0.6-3.7,1.8-4.8c0.6-0.6,1.3-1,2.1-1.2c0.4,0.2,0.9,0.4,1.3,0.6
	c3.7,2.2,11.1,2.6,16.1,2.6c5,0,12.4-0.4,16.1-2.6c0.5-0.2,0.9-0.4,1.3-0.6C119,79.9,119.7,80.3,120.3,80.8z M84.6,97.6
	c-4.2,3.7-12.9,12.1-20.2,24.2c-0.7,1.1-0.3,2.5,0.8,3.2c0.4,0.2,0.8,0.3,1.2,0.3c0.8,0,1.5-0.4,2-1.1c8.9-14.6,20.1-23.8,21.5-25
	c2.5,0.5,5.3,0.9,8.5,1v32.6c0,1.3,1.1,2.4,2.4,2.4c1.3,0,2.4-1.1,2.4-2.4v-32.6c3.2-0.1,6.1-0.5,8.5-1c1.4,1.1,12.6,10.3,21.5,25
	c0.4,0.7,1.2,1.1,2,1.1c0.4,0,0.8-0.1,1.2-0.3c1.1-0.7,1.4-2.1,0.8-3.2c-7.3-12.1-15.9-20.4-20.2-24.2c1.8-0.7,3.3-1.6,4.6-2.6
	c26.1,9.5,44.9,35.5,44.9,57.8c0,24.9-24.6,39.7-65.7,39.7s-65.7-14.9-65.7-39.7c0-22.3,18.8-48.3,44.9-57.8
	C81.2,95.9,82.7,96.8,84.6,97.6z M117.4,57.3c-0.8,0.5-1.8,0.9-2.9,1.3c-3.4,1.3-7.9,2.1-13.8,2.1c-5.9,0-10.4-0.8-13.8-2.1
	c-1.1-0.4-2-0.8-2.9-1.3c-3.1-1.8-4.6-4.1-4.6-6.4c0-1.9,0.6-3.7,1.8-4.8c0.7-0.7,1.5-1.1,2.4-1.4c3.1,2.8,11.4,3.3,16.9,3.3
	c0.1,0,0.1,0,0.2,0c0.1,0,0.1,0,0.2,0c5.5,0,13.9-0.5,16.9-3.3c0.9,0.2,1.7,0.7,2.4,1.4c1.2,1.2,1.8,2.9,1.8,4.8
	C122,53.2,120.5,55.5,117.4,57.3z M115.3,40.3c-0.3,0.3-0.6,0.6-0.8,1.1c-0.4,0.2-1.2,0.5-2.4,0.8c-2,0.5-5,0.9-9,1.1v-1.1V23.6
	c0-1.3-1.1-2.4-2.4-2.4c-1.3,0-2.4,1.1-2.4,2.4v18.6v1.1c-4-0.1-7-0.6-9-1.1c-1.1-0.3-2-0.6-2.4-0.8c-0.2-0.4-0.4-0.8-0.8-1.1
	l-6.7-22.9c-0.4-2.7,1-5.4,3.4-6.6c3.8-1.8,11.9-3.4,17.8-3.4c5.9,0,14,1.6,17.8,3.4c2.5,1.2,3.9,3.9,3.4,6.6L115.3,40.3z M50.7,108
	c7.5-7.5,16.1-13.2,25.3-16.9c-1-1.8-1.5-3.6-1.5-5.3c0-3.3,1.1-6.3,3.2-8.4c0.2-0.2,0.5-0.4,0.8-0.6c-2.8-2.6-4-5.6-4-8.4
	c0-3.3,1.1-6.3,3.2-8.4c0.2-0.2,0.5-0.4,0.8-0.6c-2.8-2.6-4-5.6-4-8.4c0-3.3,1.1-6.3,3.2-8.4c1-1,2.2-1.8,3.5-2.3l0.1,0.2
	c-1.3,0.5-2.4,1.2-3.4,2.2c-2.1,2.1-3.2,5-3.2,8.2c0,2.8,1.3,5.8,4.1,8.4c-0.3,0.3-0.7,0.5-1,0.8c-2.1,2.1-3.2,5-3.2,8.2
	c0,2.8,1.3,5.8,4.1,8.4c-0.3,0.3-0.7,0.5-1,0.8c-2.1,2.1-3.2,5-3.2,8.2c0,1.8,0.5,3.7,1.6,5.5c-9.2,3.7-17.9,9.4-25.5,17
	c-12.9,12.9-20.6,29.6-20.6,44.7c0,27.9,26.4,44.5,70.5,44.5s70.5-16.7,70.5-44.5c0-15-7.7-31.7-20.6-44.7
	c-7.6-7.6-16.2-13.3-25.5-17c1.1-1.8,1.6-3.7,1.6-5.5c0-3.2-1.1-6.1-3.2-8.2c-0.3-0.3-0.6-0.5-1-0.8c2.9-2.6,4.1-5.6,4.1-8.4
	c0-3.2-1.1-6.1-3.2-8.2c-0.3-0.3-0.6-0.5-1-0.8c2.9-2.6,4.1-5.6,4.1-8.4c0-3.2-1.1-6.1-3.2-8.2c-1-1-2.1-1.7-3.4-2.2l0.1-0.2
	c1.3,0.5,2.5,1.3,3.5,2.3c2.1,2.1,3.2,5.1,3.2,8.4c0,2.8-1.2,5.8-4,8.4c0.3,0.2,0.5,0.4,0.8,0.6c2.1,2.1,3.2,5.1,3.2,8.4
	c0,2.8-1.2,5.8-4,8.4c0.3,0.2,0.5,0.4,0.8,0.6c2.1,2.1,3.2,5.1,3.2,8.4c0,1.8-0.5,3.6-1.5,5.3c9.2,3.7,17.8,9.4,25.3,16.9
	c13,13,20.7,29.7,20.7,44.8c0,28.1-26.5,44.8-70.8,44.8c-44.3,0-70.8-16.7-70.8-44.8C30,137.7,37.8,120.9,50.7,108z"/>
</svg>
