<?xml version="1.0" encoding="utf-8"?>
<!-- Generator: Adobe Illustrator 19.0.0, SVG Export Plug-In . SVG Version: 6.00 Build 0)  -->
<svg version="1.1" id="Capa_1" xmlns="http://www.w3.org/2000/svg" xmlns:xlink="http://www.w3.org/1999/xlink" x="0px" y="0px"
	 viewBox="0 0 200 200" style="enable-background:new 0 0 200 200;" xml:space="preserve">
<style type="text/css">
	.st0{fill:#FFFFFF;}
</style>
<path id="XMLID_22_" class="st0" d="M46.6,124.3c6.2,6.2,13.7,10.9,21.6,13.6v52.4c0,0.3,0.1,0.5,0.2,0.8c0.1,0.2,0.2,0.5,0.4,0.7
	c0.2,0.2,0.4,0.3,0.7,0.4c0.2,0.1,0.5,0.2,0.8,0.2c0.3,0,0.5-0.1,0.8-0.2c0.2-0.1,0.5-0.2,0.7-0.4c0,0,40.3-40.3,40.3-40.3
	c6.6,3.2,14,4.9,21.6,4.9c8.2,0,16.1-1.9,23-5.5c0.7-0.4,1.1-1,1.1-1.8s-0.4-1.5-1.1-1.8c-6.9-3.6-14.8-5.5-23-5.5
	c-4.7,0-9.3,0.7-13.7,1.9l15.2-15.2c6,2.9,12.7,4.4,19.7,4.4c7.5,0,14.8-1.8,21.1-5.1c0.7-0.4,1.1-1,1.1-1.8s-0.4-1.5-1.1-1.8
	c-6.3-3.3-13.6-5.1-21.1-5.1c-4.1,0-8.1,0.5-11.9,1.5l7.4-7.4c6.6-2.1,12.8-6,18-11.1c5.3-5.3,9.2-11.7,11.3-18.5
	c0.2-0.7,0-1.5-0.5-2c-0.5-0.5-1.3-0.7-2-0.5c-6.8,2.1-13.2,6-18.5,11.3c-5.2,5.1-9,11.4-11.1,18l-7.4,7.4c1-3.8,1.5-7.8,1.5-11.9
	c0-7.5-1.8-14.7-5.1-21.1c-0.4-0.7-1-1.1-1.8-1.1c-0.8,0-1.5,0.4-1.8,1.1c-3.3,6.3-5.1,13.6-5.1,21.1c0,6.9,1.5,13.7,4.4,19.7
	L117,140.5c1.2-4.4,1.9-9,1.9-13.7c0-8.2-1.9-16.1-5.5-23c-0.7-1.3-2.9-1.3-3.6,0c-3.6,6.9-5.5,14.8-5.5,23c0,7.6,1.7,15.1,4.9,21.6
	l-36.8,36.8v-47.4c7.9-2.7,15.4-7.4,21.6-13.6c6.6-6.6,11.5-14.6,14.1-23c0.2-0.7,0-1.5-0.5-2c-0.5-0.5-1.3-0.7-2-0.5
	c-8.5,2.6-16.5,7.5-23,14.1c-4.1,4.1-7.5,8.7-10.1,13.6v-23.2c7.4-2.5,14.3-6.9,20-12.6c6.1-6.1,10.7-13.6,13.1-21.5
	c0.2-0.7,0-1.5-0.5-2c-0.5-0.5-1.3-0.7-2-0.5c-7.9,2.4-15.3,7-21.5,13.1c-3.6,3.6-6.7,7.8-9.1,12.1V68.3c6.7-2.3,13-6.3,18.2-11.5
	c5.6-5.6,9.8-12.4,12-19.6c0.2-0.7,0-1.5-0.5-2c-0.5-0.5-1.3-0.7-2-0.5c-7.2,2.2-14,6.4-19.6,12c-3.2,3.2-5.9,6.7-8,10.5V45.5
	c3.4-6.6,5.2-14.1,5.2-21.9c0-7.9-1.9-15.7-5.4-22.4c-0.7-1.3-2.9-1.3-3.6,0C64.9,7.9,63,15.6,63,23.6c0,7.8,1.8,15.3,5.2,21.9v11.6
	c-2.2-3.8-4.8-7.3-8-10.5c-5.6-5.6-12.4-9.8-19.6-12c-0.7-0.2-1.5,0-2,0.5c-0.5,0.5-0.7,1.3-0.5,2c2.2,7.2,6.4,14,12,19.6
	c5.2,5.2,11.5,9.2,18.2,11.5v23.5c-2.4-4.4-5.5-8.5-9.1-12.1C52.9,73.5,45.5,69,37.6,66.5c-0.7-0.2-1.5,0-2,0.5
	c-0.5,0.5-0.7,1.3-0.5,2c2.4,7.9,7,15.3,13.1,21.5c5.8,5.8,12.7,10.1,20,12.6v23.2c-2.6-4.9-6-9.5-10.1-13.6
	c-6.6-6.6-14.6-11.5-23-14.1c-0.7-0.2-1.5,0-2,0.5c-0.5,0.5-0.7,1.3-0.5,2C35.1,109.7,40,117.7,46.6,124.3z M150.8,148.9
	c-10.7,4.3-23.7,4.3-34.4,0C127.1,144.6,140.2,144.6,150.8,148.9z M170,125.7c-9.4,3.7-20.9,3.7-30.4,0
	C149.1,122,160.6,122,170,125.7z M161.4,95.1c3.7-3.7,8.1-6.7,12.7-8.8c-2,4.6-5,9-8.8,12.7c-3.7,3.7-8.1,6.7-12.7,8.8
	C154.7,103.1,157.7,98.8,161.4,95.1z M131.9,105.6c0-5.3,1-10.5,2.8-15.2c1.8,4.7,2.8,9.9,2.8,15.2c0,5.3-1,10.5-2.8,15.2
	C132.9,116.1,131.9,110.9,131.9,105.6z M108.3,126.8c0-6,1.1-11.9,3.3-17.2c2.1,5.3,3.3,11.2,3.3,17.2c0,6-1.1,11.9-3.3,17.2
	C109.4,138.7,108.3,132.8,108.3,126.8z M85.2,115.6c5.1-5.1,11-9.1,17.4-11.7c-2.6,6.4-6.6,12.3-11.7,17.4
	c-5.1,5.1-11,9.1-17.4,11.7C76.2,126.7,80.2,120.7,85.2,115.6z M84.3,82.5c4.6-4.6,10-8.2,15.8-10.6c-2.4,5.8-6,11.2-10.7,15.8
	c-4.6,4.6-10,8.2-15.8,10.6C76,92.5,79.7,87.1,84.3,82.5z M83.2,49.5c4.1-4.1,8.8-7.3,13.9-9.5c-2.2,5.1-5.4,9.8-9.5,13.9
	c-4.1,4.1-8.8,7.3-13.9,9.5C75.8,58.3,79.1,53.5,83.2,49.5z M52.9,53.9c-4.1-4.1-7.3-8.8-9.5-13.9c5.1,2.2,9.8,5.4,13.9,9.5
	c4.1,4.1,7.3,8.8,9.5,13.9C61.7,61.2,56.9,57.9,52.9,53.9z M51,87.6c-4.6-4.6-8.2-10-10.6-15.8c5.8,2.4,11.2,6,15.8,10.6
	c4.6,4.6,8.2,10,10.6,15.8C61.1,95.9,55.7,92.3,51,87.6z M67.1,23.6c0-5.8,1.1-11.4,3.1-16.5c2.1,5.1,3.1,10.8,3.1,16.5
	c0,5.8-1.1,11.4-3.1,16.5C68.2,35,67.1,29.3,67.1,23.6z M55.2,115.6c5.1,5.1,9.1,11,11.7,17.4c-6.4-2.6-12.3-6.6-17.4-11.7
	c-5.1-5.1-9.1-11-11.7-17.4C44.2,106.6,50.1,110.6,55.2,115.6z"/>
<circle id="XMLID_3_" class="st0" cx="48.9" cy="161.6" r="9.8"/>
<circle id="XMLID_2_" class="st0" cx="29.2" cy="180.5" r="9.8"/>
<circle id="XMLID_1_" class="st0" cx="52.3" cy="190.2" r="9.8"/>
</svg>
