<?xml version="1.0" encoding="utf-8"?>
<!-- Generator: Adobe Illustrator 19.0.0, SVG Export Plug-In . SVG Version: 6.00 Build 0)  -->
<svg version="1.1" id="Capa_1" xmlns="http://www.w3.org/2000/svg" xmlns:xlink="http://www.w3.org/1999/xlink" x="0px" y="0px"
	 viewBox="0 0 200 200" style="enable-background:new 0 0 200 200;" xml:space="preserve">
<style type="text/css">
	.st0{fill:#FFFFFF;}
</style>
<path id="XMLID_13_" class="st0" d="M164.8,121.7c-5.3-0.7-11.1,1.1-14.9,4.6c-10.3,9.9-22.2,20.6-25.2,22.6H105
	c-4.4,0-7.8-1.9-9.1-5l16.1,0c5,0,9.6-2.3,12.3-6.2c2.9-4.1,3.3-9.3,1.4-14.9c-0.5-1.3-1.7-2.2-3.2-2.2H87.1
	c-17.5,0-33.4,18.3-41.1,27.1c-1.4,1.6-2.6,3-3.2,3.6c-9.2,8.6-18,16.7-18.1,16.8c-1.4,1.2-1.5,3.4-0.2,4.7c1.2,1.4,3.4,1.5,4.7,0.2
	c0.1-0.1,9-8.2,18.2-16.9c0.9-0.8,2.1-2.2,3.7-4.1c7-8,21.6-24.8,36.1-24.8H120c0.5,2.5,0.1,4.8-1.1,6.5c-1.5,2.1-4.1,3.4-6.9,3.4
	l-20.1,0c-1.8,0-3.3,1.5-3.3,3.3c0,8.7,6.9,15.1,16.5,15.1h20.5c1.5,0,3.4,0,29-24.4c1.9-1.7,5.6-3.3,9.5-2.8
	c2.1,0.3,3.9,1.1,5.4,2.5l-37.3,37.3c-2.3,2.3-5.4,3.6-8.6,3.6H77.1c-5,0-9.8,1.9-13.4,5.4l-16.2,15.5c-1.3,1.3-1.4,3.4-0.1,4.7
	c0.7,0.7,1.5,1,2.4,1c0.8,0,1.7-0.3,2.3-0.9l16.2-15.5c2.4-2.3,5.5-3.5,8.8-3.5h46.4c5,0,9.8-2,13.4-5.5l39.4-39.4
	c1.1-1.1,1.3-2.9,0.4-4.2C173.8,124.9,169.7,122.3,164.8,121.7z"/>
<path id="XMLID_22_" class="st0" d="M160.6,67.6c-2-6.2-7.3-10.7-13.8-11.6c-3-0.4-6-0.1-8.7,1c0.2-2.9-0.4-5.8-1.7-8.5
	c-2.9-5.9-8.8-9.5-15.3-9.5c-6.6,0-12.4,3.6-15.3,9.5c-1.3,2.7-1.9,5.6-1.7,8.5c-2.7-1.1-5.7-1.4-8.7-1c-6.5,0.9-11.8,5.4-13.8,11.6
	c-2,6.2-0.4,12.9,4.3,17.5c2.2,2.1,4.8,3.5,7.6,4.3c-1.8,2.2-3.1,4.9-3.6,7.9c-1.1,6.5,1.5,12.9,6.8,16.7c3,2.2,6.5,3.3,10,3.3
	c2.7,0,5.4-0.7,8-2c2.7-1.4,4.8-3.5,6.4-5.9c1.6,2.4,3.7,4.5,6.4,5.9c2.5,1.3,5.2,2,8,2c3.5,0,7-1.1,10-3.3
	c5.3-3.8,7.9-10.3,6.8-16.7c-0.5-3-1.8-5.7-3.6-7.9c2.8-0.7,5.4-2.2,7.6-4.3C161,80.6,162.6,73.8,160.6,67.6z M110.7,50.9
	c2-4.1,5.9-6.5,10.4-6.5c4.5,0,8.4,2.4,10.4,6.5c1.9,3.9,1.5,8.5-1,12c0,0-7.2,9.9-7.2,9.9v-8.9c0-1.2-1-2.2-2.2-2.2
	c-1.2,0-2.2,1-2.2,2.2v8.9l-7.2-9.9C109.1,59.3,108.8,54.7,110.7,50.9z M89.7,81.2c-3.2-3.2-4.3-7.6-2.9-11.9
	c1.4-4.3,4.9-7.3,9.4-7.9c0.6-0.1,1.1-0.1,1.7-0.1c3.7,0,7.2,1.8,9.4,4.8c0,0,7,9.6,7,9.6l-9.2-3.3c-1.2-0.4-2.4,0.2-2.9,1.4
	c-0.4,1.2,0.2,2.4,1.4,2.8l9.8,3.5L101.5,84C97.3,85.3,92.8,84.3,89.7,81.2z M112.2,110.5c-4,2.1-8.6,1.8-12.3-0.9
	c-3.7-2.7-5.4-6.9-4.6-11.4c0.7-4.3,3.8-7.8,7.9-9.1l11.5-3.7l-5.4,7.2c-0.7,1-0.5,2.4,0.5,3.1c0.4,0.3,0.9,0.4,1.3,0.4
	c0.7,0,1.4-0.3,1.8-0.9l5.5-7.4v12.3C118.4,104.5,116,108.5,112.2,110.5z M142.3,109.6c-3.7,2.7-8.2,3-12.3,0.9
	c-3.8-2-6.2-6-6.2-10.3V87.8l5.6,7.5c0.4,0.6,1.1,0.9,1.8,0.9c0.5,0,0.9-0.1,1.3-0.4c1-0.7,1.2-2.1,0.5-3.1l-5.3-7.2l11.4,3.7
	c4.1,1.3,7.1,4.8,7.9,9.1C147.7,102.7,146,107,142.3,109.6z M152.5,81.2c-3.1,3-7.6,4.1-11.7,2.7l-11.9-3.9l9.9-3.5
	c1.2-0.4,1.8-1.7,1.4-2.8c-0.4-1.2-1.7-1.8-2.9-1.4l-9.3,3.3l7-9.6c2.6-3.5,6.8-5.3,11.1-4.7c4.5,0.7,8,3.6,9.4,7.9
	C156.8,73.6,155.7,78.1,152.5,81.2z"/>
<path id="XMLID_15_" class="st0" d="M98.7,12.7c-1.6-0.2-3.2-0.1-4.7,0.3c-0.1-1.6-0.5-3.1-1.2-4.6c-2-4.1-6.1-6.7-10.7-6.7
	c-4.6,0-8.7,2.6-10.7,6.7c-0.7,1.5-1.1,3-1.2,4.6c-1.5-0.4-3.1-0.5-4.7-0.3c-4.5,0.7-8.2,3.8-9.7,8.1c-1.4,4.4-0.3,9.1,3,12.3
	c1.2,1.1,2.5,2,4,2.6c-0.8,1.3-1.4,2.8-1.7,4.4c-0.8,4.5,1,9,4.8,11.7c2.1,1.5,4.6,2.3,7,2.3c1.9,0,3.8-0.5,5.6-1.4
	c1.4-0.8,2.7-1.8,3.7-3c1,1.2,2.2,2.2,3.7,3c1.8,0.9,3.7,1.4,5.6,1.4c2.5,0,4.9-0.8,7-2.3c3.7-2.7,5.5-7.2,4.8-11.7
	c-0.3-1.6-0.9-3.1-1.7-4.4c1.5-0.6,2.8-1.4,4-2.6c3.3-3.2,4.4-7.9,3-12.3C106.9,16.4,103.2,13.3,98.7,12.7z M76.2,10.7
	c1.1-2.3,3.3-3.6,5.9-3.6c2.5,0,4.7,1.4,5.9,3.6c1.1,2.2,0.9,4.8-0.6,6.7l-3.6,5v-3.8c0-0.9-0.8-1.7-1.7-1.7c-0.9,0-1.7,0.8-1.7,1.7
	v3.8l-3.6-5C75.3,15.5,75.1,12.9,76.2,10.7z M62.5,29.2c-1.8-1.8-2.4-4.3-1.7-6.7c0.8-2.4,2.8-4.1,5.3-4.4c0.3,0,0.6-0.1,0.9-0.1
	c2.1,0,4,1,5.3,2.7l3.4,4.7l-4-1.4c-0.9-0.3-1.8,0.1-2.1,1c-0.3,0.9,0.1,1.8,1,2.1l4.5,1.6l-6.1,2C66.8,31.5,64.2,30.9,62.5,29.2z
	 M75.8,47.9c-2.2,1.2-4.8,1-6.9-0.5c-2.1-1.5-3-3.9-2.6-6.4c0.4-2.4,2.1-4.4,4.4-5.1l5.7-1.9l-2.3,3c-0.6,0.7-0.4,1.8,0.3,2.3
	c0.3,0.2,0.6,0.3,1,0.3c0.5,0,1-0.2,1.3-0.7l2.4-3.2v6.2C79.3,44.5,78,46.7,75.8,47.9z M95.1,47.4c-2.1,1.5-4.6,1.7-6.9,0.5
	c-2.2-1.1-3.5-3.3-3.5-5.8v-6.3l2.4,3.3c0.3,0.4,0.8,0.7,1.3,0.7c0.3,0,0.7-0.1,1-0.3c0.7-0.5,0.9-1.6,0.3-2.3l-2.2-3l5.7,1.8
	c2.3,0.8,4,2.7,4.4,5.1C98.1,43.5,97.2,45.9,95.1,47.4z M101.5,29.2c-1.7,1.7-4.3,2.3-6.6,1.5l-6.1-2l4.6-1.6c0.9-0.3,1.3-1.3,1-2.1
	c-0.3-0.9-1.3-1.3-2.1-1l-4,1.4l3.4-4.7c1.4-2,3.8-3,6.2-2.6c2.5,0.4,4.5,2,5.3,4.4C104,24.9,103.4,27.4,101.5,29.2z"/>
</svg>
