<?xml version="1.0" encoding="utf-8"?>
<!-- Generator: Adobe Illustrator 19.0.0, SVG Export Plug-In . SVG Version: 6.00 Build 0)  -->
<svg version="1.1" id="Capa_1" xmlns="http://www.w3.org/2000/svg" xmlns:xlink="http://www.w3.org/1999/xlink" x="0px" y="0px"
	 viewBox="0 0 200 200" style="enable-background:new 0 0 200 200;" xml:space="preserve">
<style type="text/css">
	.st0{fill:#FFFFFF;}
</style>
<path id="XMLID_6_" class="st0" d="M131.6,85.7c0,11,8.9,19.8,19.8,19.8c11,0,19.8-8.9,19.8-19.8c0-10.9-8.9-19.8-19.8-19.8
	C140.4,65.8,131.6,74.7,131.6,85.7z"/>
<path id="XMLID_5_" class="st0" d="M183.8,102.2c-0.8,0.4-7.9,4.3-15.6,8c-3.9,1.8-7.9,3.6-11.2,4.8c-1.7,0.6-3.2,1.1-4.3,1.4
	c-0.3,0.1-0.6,0.1-0.8,0.2c-1.1-0.5-2.6-1.3-4.5-2.4c-5.3-2.9-12.8-7.3-19.9-11.6c-0.7-1.1-1.5-2-2.4-2.8
	c-6.9-15.2-18.1-19.6-28.4-19.6l-33.5,5.2C26.4,84.3,2,96.9,2,96.9v24.4h115.2c0.8,0,1.6-0.1,2.3-0.2c5.2,3.1,10.5,6.3,15.1,8.8
	c2.5,1.4,4.7,2.6,6.6,3.6c1,0.5,1.9,0.9,2.7,1.3c0.9,0.4,1.6,0.7,2.7,1.1c1.8,0.6,3.3,0.7,4.6,0.7c1.3,0,2.4-0.1,3.5-0.3
	c2-0.3,4-0.9,6-1.5c3.5-1.1,7.1-2.6,10.8-4.2c10.9-4.8,21.9-10.9,22-10.9c4.8-2.7,6.6-8.8,3.9-13.6
	C194.8,101.3,188.7,99.6,183.8,102.2z"/>
<path id="XMLID_4_" class="st0" d="M117.2,128H2v11.1h115.2c3.1,0,5.6-2.5,5.6-5.6C122.7,130.5,120.2,128,117.2,128z"/>
<ellipse id="XMLID_3_" transform="matrix(-6.928016e-002 -0.9976 0.9976 -6.928016e-002 -9.2878 134.1855)" class="st0" cx="58" cy="71.4" rx="6" ry="11.4"/>
<ellipse id="XMLID_2_" transform="matrix(-0.1479 -0.989 0.989 -0.1479 -44.0645 111.2711)" class="st0" cx="25.9" cy="74.6" rx="6" ry="11.4"/>
<ellipse id="XMLID_1_" transform="matrix(-0.1569 -0.9876 0.9876 -0.1569 37.7421 166.6435)" class="st0" cx="90" cy="67.2" rx="6" ry="11.4"/>
</svg>
