<?xml version="1.0" encoding="utf-8"?>
<!-- Generator: Adobe Illustrator 19.0.0, SVG Export Plug-In . SVG Version: 6.00 Build 0)  -->
<svg version="1.1" id="Capa_1" xmlns="http://www.w3.org/2000/svg" xmlns:xlink="http://www.w3.org/1999/xlink" x="0px" y="0px"
	 viewBox="0 0 200 200" style="enable-background:new 0 0 200 200;" xml:space="preserve">
<style type="text/css">
	.st0{fill:#FFFFFF;}
</style>
<path id="XMLID_6_" class="st0" d="M177.1,106.7c-6.2-0.8-13.1,1.3-17.6,5.4c-12.6,12-27,25.1-30.4,27.3h-23.9
	c-5.8,0-10-2.6-11.5-6.8l19.9,0c5.9,0,11.3-2.7,14.5-7.3c3.4-4.8,3.9-11,1.6-17.5c-0.5-1.4-1.9-2.4-3.4-2.4H83.7
	c-20.9,0-39.9,21.9-49.1,32.4c-1.7,1.9-3.1,3.6-3.9,4.3c-11,10.4-21.7,20.1-21.8,20.2c-1.5,1.4-1.6,3.7-0.2,5.1
	c1.4,1.5,3.7,1.6,5.1,0.2c0.1-0.1,10.8-9.8,21.9-20.3c1.1-1,2.5-2.6,4.4-4.9c8.5-9.7,26.1-29.9,43.6-29.9h39.9
	c0.7,3.3,0.2,6.2-1.4,8.5c-1.8,2.6-5.1,4.2-8.6,4.2l-24.2,0c-2,0-3.6,1.6-3.6,3.6c0,10.3,8.2,17.7,19.4,17.7h24.7
	c1.7,0,4,0,34.6-29.2c2.3-2.1,6.9-4.1,11.7-3.5c2.7,0.3,5,1.5,6.9,3.4l-45.1,45.1c-2.8,2.8-6.6,4.4-10.6,4.4H71.7
	c-5.9,0-11.6,2.3-15.8,6.4l-19.4,18.6c-1.5,1.4-1.5,3.7-0.1,5.2c0.7,0.7,1.7,1.1,2.6,1.1c0.9,0,1.8-0.3,2.5-1l19.4-18.6
	c2.9-2.8,6.8-4.3,10.8-4.3h55.7c6,0,11.6-2.3,15.8-6.5l47.4-47.4c1.2-1.2,1.4-3.1,0.5-4.6C187.7,110.4,182.9,107.4,177.1,106.7z"/>
<path id="XMLID_3_" class="st0" d="M113.6,92.3c0.2,0,0.5,0,0.7,0c7.8,0,15.2-3,20.9-8.5c5.8-5.7,9-13.3,9-21.4
	c0-4.5-1.1-9-3.2-13.2c0-0.1-23.4-44.5-23.4-44.5c-0.6-1.2-1.9-1.9-3.2-1.9c-1.4,0-2.6,0.7-3.2,1.9L87.7,49.2
	c-3,6-3.9,12.2-2.7,18.4C87.5,81.6,99.6,92,113.6,92.3z M94.2,52.6l20.2-38.3l20.2,38.2c1.6,3.2,2.4,6.6,2.4,10
	c0,6.1-2.4,11.9-6.8,16.2c-4.4,4.3-10.2,6.6-16.3,6.4c-10.6-0.3-19.7-8.1-21.7-18.7C91.3,61.7,92,57,94.2,52.6z"/>
<path id="XMLID_2_" class="st0" d="M114.4,79c1.3,0,2.3-1,2.3-2.3s-1-2.3-2.3-2.3c-0.5,0-1-0.1-1.4-0.1c-6.1-0.7-10.8-5.9-10.8-12.1
	c0-1.6,0.3-3.2,0.9-4.7c0.2-0.4,0.4-0.9,0.6-1.3c0.6-1.1,0.2-2.5-0.9-3.1c-1.1-0.6-2.5-0.2-3.1,0.9c-1.4,2.5-2.1,5.3-2.1,8.1
	C97.5,71.4,105.1,79,114.4,79z"/>
</svg>
