<?xml version="1.0" encoding="utf-8"?>
<!-- Generator: Adobe Illustrator 19.0.0, SVG Export Plug-In . SVG Version: 6.00 Build 0)  -->
<svg version="1.1" id="Capa_1" xmlns="http://www.w3.org/2000/svg" xmlns:xlink="http://www.w3.org/1999/xlink" x="0px" y="0px"
	 viewBox="0 0 200 200" style="enable-background:new 0 0 200 200;" xml:space="preserve">
<style type="text/css">
	.st0{fill:#FFFFFF;}
</style>
<path id="XMLID_22_" class="st0" d="M187.3,91.3c5.6-5.8,9.4-12.5,11.3-19.3c-6.8,2.2-13.3,6.3-18.9,12.1
	c-4.6,4.7-7.9,10.1-10.1,15.7l-8,8.3c1.7-4.6,2.6-9.7,2.5-15.1c-0.1-7.1-2-13.7-5-19.2c-2.8,5.6-4.4,12.3-4.3,19.4
	c0.1,6.5,1.7,12.5,4.2,17.6l-14.2,14.8c1.9-5.2,3-10.9,2.8-17c-0.1-7.8-2.2-15-5.5-21.1c-3.1,6.2-4.8,13.5-4.7,21.2
	c0.1,7.1,1.9,13.8,4.7,19.5l-12.6,13.1c3.3-36.6,8.2-69.5,9.5-74.4c0.1-0.3,0.1-0.5,0.1-0.8V58c0-1.6-1.3-2.9-2.9-2.9H77.2
	c-1.6,0-2.9,1.3-2.9,2.9v8.1c0,0.3,0,0.5,0.1,0.8c1.5,5.3,7,43.2,10.3,83.2c0,0.1,0,0.3,0.1,0.4c0.1,0.3,0.5,2,1.5,3.9
	c-0.2,0.4-0.4,0.9-0.4,1.4v14.4c0,5,3.7,9.1,8.7,9.7c0.1,0,0.2,0,0.3,0l23.8,0c0.1,0,0.2,0,0.3,0c4.9-0.6,8.6-4.7,8.6-9.7v-14.4
	c0-0.5-0.2-1-0.4-1.4c0.4-0.7,0.8-1.5,1-2.1c5.7,2.1,12,3.2,18.6,3.1c8.6-0.2,16.6-2.4,23.2-6.1c-6.8-3.4-14.8-5.3-23.4-5.2
	c-6.3,0.1-12.2,1.3-17.6,3.4c0-0.3,0.1-0.6,0.1-1l15.4-16c5.8,2.6,12.5,4.1,19.7,4c7.8-0.1,15-2.2,21.1-5.5
	c-6.2-3.1-13.5-4.8-21.2-4.7c-6.1,0.1-11.8,1.4-16.8,3.5l14.2-14.8c5.3,2.4,11.3,3.7,17.8,3.6c7.1-0.1,13.7-2,19.2-5
	c-5.6-2.8-12.3-4.4-19.4-4.3c-5.4,0.1-10.5,1.2-15,3l8-8.3C177.5,99.6,182.8,96,187.3,91.3z M121.8,170.1c0,1.9-1.4,3.6-3.3,3.9
	L95,174c-1.9-0.3-3.3-1.9-3.3-3.9v-0.3h7.7h14.8h7.7V170.1z M80.1,60.9h53.3v3.7H80.1V60.9z M132.9,67.6c-1.4,6.9-4,24.5-6.4,45.7
	c-1.2,10.9-2.4,22.8-3.4,34.7c0,0.5-0.1,0.9-0.1,1.4c-0.2,0.6-0.6,1.9-1.4,2.8h-2.5H91.9c-0.8-1-1.3-2.2-1.4-2.8
	c-2.9-35.4-7.7-71.1-9.9-81.8H132.9z M108.7,164c1,0,1.9,0.4,2.6,1c0.6,0.5,1,1.2,1.2,1.9h-3.1H105h-4.1c0.5-1.7,2-3,3.9-3h2.9
	H108.7z M121.8,158.1v8.9h-6.3c-0.2-1.6-1-3-2.2-4c-0.8-0.8-1.9-1.3-3-1.6c-0.5-0.1-1.1-0.2-1.7-0.2h-3.9c-3.5,0-6.3,2.6-6.8,5.9
	h-6.3v-8.9v-2.3h24h4.5h1.5V158.1z"/>
<path id="XMLID_18_" class="st0" d="M64.7,173.5c0.6-1.3,0.6-2.5,0.3-3.5l2.3-89.3c0-0.2,0-0.4,0-0.5C65.2,68,58.5,60.6,47.2,58.2
	v-5h0.3c1.6,0,2.9-1.3,2.9-2.9V30.6c0-2.8-1.1-5.5-3.1-7.5c-2-2-4.6-3.1-7.5-3.1H28.3c-2.8,0-5.5,1.1-7.5,3.1c-2,2-3.1,4.6-3.1,7.5
	v19.6c0,1.6,1.3,2.9,2.9,2.9H21v5C9.7,60.6,3,68,1,80.2c0,0.2,0,0.4,0,0.5l2.3,89.3c-0.3,1-0.4,2.2,0.3,3.5c1.5,3,6.3,6.3,30.6,6.3
	C58.4,179.9,63.2,176.5,64.7,173.5z M59.1,171.1c-1.3,0.8-6.4,2.9-25,2.9c-18.6,0-23.7-2.1-25-2.9c0-0.2,0-0.4,0-0.5L6.9,80.9
	C8.6,70.5,14.1,65,24.3,63.5c1.4-0.2,2.5-1.4,2.5-2.9v-7.5h14.6v7.5c0,1.5,1.1,2.7,2.5,2.9c10.2,1.5,15.8,7,17.5,17.4l-2.3,89.7
	C59.1,170.7,59.1,170.9,59.1,171.1z M23.6,47.3V30.6c0-1.3,0.5-2.4,1.4-3.3c0.9-0.9,2.1-1.4,3.3-1.4h11.6c1.3,0,2.4,0.5,3.3,1.4
	c0.9,0.9,1.4,2.1,1.4,3.3v16.7h-0.3H23.9H23.6z"/>
<path id="XMLID_3_" class="st0" d="M39.8,71.4c-1-0.2-2.1,0.6-2.2,1.6c-0.2,1.1,0.6,2.1,1.6,2.2c7.6,1.1,11.7,5.2,13,12.9l-1.7,65.6
	c0,1.1,0.8,2,1.9,2c1.1,0,2-0.8,2-1.9L56,88.1c0-0.1,0-0.2,0-0.4C54.5,78.2,49,72.8,39.8,71.4z"/>
<path id="XMLID_14_" class="st0" d="M106.7,136.5c4.3,0,8.1-3.8,10.6-9.8c2-4.8,3.2-11,3.2-17.9c0-0.3,0-0.5,0-0.8
	c-0.2-15.1-6.2-26.8-13.8-26.8c-7.7,0-13.8,12.1-13.8,27.6C92.9,124.3,99,136.5,106.7,136.5z M106.7,84.5c5.1,0,10.5,9.8,10.5,24.4
	s-5.4,24.4-10.5,24.4c-5.1,0-10.5-9.8-10.5-24.4S101.7,84.5,106.7,84.5z"/>
</svg>
