<?xml version="1.0" encoding="utf-8"?>
<!-- Generator: Adobe Illustrator 19.0.0, SVG Export Plug-In . SVG Version: 6.00 Build 0)  -->
<svg version="1.1" id="Capa_1" xmlns="http://www.w3.org/2000/svg" xmlns:xlink="http://www.w3.org/1999/xlink" x="0px" y="0px"
	 viewBox="0 0 200 200" style="enable-background:new 0 0 200 200;" xml:space="preserve">
<style type="text/css">
	.st0{fill:#FFFFFF;}
</style>
<path id="XMLID_13_" class="st0" d="M64.3,198.2c0.5,0,0.9,0,1.4,0c14.7,0,28.5-5.6,39.1-15.9c10.9-10.6,16.9-24.9,16.9-40.1
	c0-8.4-2-16.8-6-24.8c0-0.1-45.9-87.1-45.9-87.1c-0.8-1.5-2.4-2.5-4.1-2.5c-1.7,0-3.3,0.9-4.1,2.5l-45.9,87.1
	c-5.6,11.2-7.3,22.8-5.1,34.5C15.4,178.1,38,197.5,64.3,198.2z M107.4,121.5c3.3,6.7,5,13.7,5,20.7c0,12.7-5,24.6-14.1,33.5
	c-9.1,8.9-21.1,13.6-33.8,13.3c-22-0.5-40.8-16.8-44.9-38.7c-1.8-9.7-0.3-19.4,4.3-28.7l41.8-79.3L107.4,121.5z"/>
<path id="XMLID_4_" class="st0" d="M67.4,180.3c2.6,0,4.7-2,4.7-4.5c0.1-2.5-2-4.7-4.5-4.7c-1,0-2-0.1-3-0.2
	c-13.5-1.7-24.7-12.1-27.2-25.9c-1-5.6-0.5-11.2,1.7-16.6c0.4-0.9,0.8-1.9,1.2-2.8c1.1-2.3,0.2-5-2.1-6.2c-2.3-1.1-5-0.2-6.2,2.1
	c-4,8.1-5.3,16.6-3.7,25.2C31.8,165.7,48.3,179.8,67.4,180.3z"/>
<path id="XMLID_9_" class="st0" d="M149.9,117.2c0.3,0,0.6,0,1,0c10.1,0,19.6-3.9,26.9-11c7.5-7.3,11.6-17.1,11.6-27.6
	c0-5.8-1.4-11.6-4.1-17.1c0-0.1-30.3-57.5-30.3-57.5c-0.8-1.5-2.4-2.5-4.1-2.5c-1.7,0-3.3,0.9-4.1,2.5l-30.3,57.5
	c-3.8,7.7-5,15.7-3.5,23.8C116.3,103.4,131.8,116.8,149.9,117.2z M124.7,65.9l26.2-49.7L177,65.8c2.1,4.2,3.1,8.6,3.1,12.9
	c0,8-3.1,15.4-8.8,21c-5.7,5.6-13.1,8.6-21.2,8.3c-13.8-0.3-25.6-10.5-28.1-24.3C120.9,77.7,121.8,71.6,124.7,65.9z"/>
<path id="XMLID_1_" class="st0" d="M153,100c2.1,0,3.8-1.6,3.9-3.7c0.1-2.1-1.6-3.8-3.7-3.9c-0.9,0-1.7-0.1-2.5-0.3
	c-6.3-1.2-11.4-6.3-12.6-12.9c-0.5-2.5-0.3-4.9,0.5-7.4c0.3-0.8,0.6-1.6,1-2.4c0.9-1.9,0.2-4.2-1.7-5.1c-1.9-0.9-4.2-0.2-5.1,1.7
	c-2.3,4.7-3,9.6-2.1,14.5C132.6,91.6,142,99.8,153,100z"/>
</svg>
