<?xml version="1.0" encoding="utf-8"?>
<!-- Generator: Adobe Illustrator 19.0.0, SVG Export Plug-In . SVG Version: 6.00 Build 0)  -->
<svg version="1.1" id="Capa_1" xmlns="http://www.w3.org/2000/svg" xmlns:xlink="http://www.w3.org/1999/xlink" x="0px" y="0px"
	 viewBox="0 0 200 200" style="enable-background:new 0 0 200 200;" xml:space="preserve">
<style type="text/css">
	.st0{fill:#FFFFFF;}
</style>
<g id="XMLID_6_">
	<path id="XMLID_4_" class="st0" d="M194.2,49.3c-5.1-3.5-12-2.3-15.6,2.8l-61.9,89.3l-54.7,0c-6.2,0-11.2,5-11.2,11.2
		c0,6.2,5,11.2,11.2,11.2l60.6,0c3.7,0,7.1-1.8,9.2-4.8L197,64.9C200.5,59.8,199.3,52.8,194.2,49.3z"/>
	<path id="XMLID_3_" class="st0" d="M189,103.6c-0.3-1.1-0.6-2.1-0.7-2.9c-0.2-1.5-1.5-2.6-3-2.4c-1.5,0.2-2.6,1.5-2.4,3
		c0.1,1.4,0.5,2.7,0.9,3.9c0.4,1.2,0.7,2.3,0.8,3.4c0.3,3.7-1,4.4-6.4,5.4c-4.5,0.9-12,2.3-10.7,12c0.2,1.3,0.5,2.4,0.7,3.6
		c1,4,1.1,5.1-1.7,6.4c-1.1,0.5-2.5,0.5-4.1,0.6c-3.1,0.1-7.4,0.2-9.9,5c-1.8,3.5-0.7,6.8,0.3,9.4c0.6,1.7,1.1,3.3,0.8,4.6
		c-0.7,2.6-2.4,3-6.9,3.3c-0.8,0.1-1.7,0.1-2.5,0.2c-1.5,0.2-2.6,1.5-2.4,3c0.2,1.4,1.3,2.4,2.7,2.4c0.1,0,0.2,0,0.3,0
		c0.7-0.1,1.5-0.1,2.2-0.2c4-0.3,10.2-0.7,11.9-7.4c0.7-2.9-0.2-5.4-0.9-7.7c-0.8-2.4-1.2-3.8-0.5-5.2c0.9-1.8,2-1.9,5.2-2
		c1.9-0.1,4.1-0.1,6.2-1.1c7.1-3.3,5.7-8.9,4.7-12.7c-0.2-1-0.5-2-0.6-3c-0.6-4.4,1-4.9,6.3-5.9c4.4-0.8,11.6-2.2,10.8-11.3
		C189.9,106.5,189.4,105,189,103.6z"/>
	<circle id="XMLID_2_" class="st0" cx="152.9" cy="31.3" r="21.3"/>
	<path id="XMLID_1_" class="st0" d="M116.9,127.6c9.8-13.8,28.5-39.9,28.5-40c6.3-10,3.4-23.3-6.6-29.6c-10-6.3-22.2-2-28.4,6.6
		l-29.7,45.5H41.5c-4.9,0-9.3,2.8-11.5,7.1l-26.5,53c-2.9,5.8-1.4,13.1,4,16.8c2.3,1.6,4.8,2.3,7.3,2.3c4.7,0,9.3-2.6,11.5-7.1
		l23.1-46.3h51.4C107.2,135.9,113.2,132.8,116.9,127.6z"/>
</g>
</svg>
