<?xml version="1.0" encoding="utf-8"?>
<!-- Generator: Adobe Illustrator 19.0.0, SVG Export Plug-In . SVG Version: 6.00 Build 0)  -->
<svg version="1.1" id="Capa_1" xmlns="http://www.w3.org/2000/svg" xmlns:xlink="http://www.w3.org/1999/xlink" x="0px" y="0px"
	 viewBox="0 0 200 200" style="enable-background:new 0 0 200 200;" xml:space="preserve">
<style type="text/css">
	.st0{fill:#FFFFFF;}
</style>
<path id="XMLID_27_" class="st0" d="M77.1,177.3v-82c0-11.1-7.9-20.4-18.5-22.4V60.8H63c4.4,0,7.9-3.6,7.9-7.9v-6.1
	c0-5.5-4.5-10-10-10h-2.2V22.7c0-1.9-1.6-3.5-3.5-3.5H24c-1.9,0-3.5,1.6-3.5,3.5v14.1h-2.2c-5.5,0-10,4.5-10,10v6.1
	c0,4.4,3.6,7.9,7.9,7.9h4.3v12.1C9.9,75,2,84.2,2,95.3v82c0,6,4.9,10.9,10.9,10.9h53.2C72.2,188.3,77.1,183.4,77.1,177.3z
	 M27.5,26.3h24.1v10.3H27.5V26.3z M16.1,53.8c-0.5,0-0.9-0.4-0.9-0.9v-6.1c0-1.6,1.3-3,3-3h42.6c1.6,0,3,1.3,3,3v6.1
	c0,0.5-0.4,0.9-0.9,0.9H16.1z M9,177.3V133c2.4,0.4,5.5,0.8,9.3,0.8c6.3,0,14.2-1.1,22.7-4.8c4.8-2.1,9.1-3.3,13-4v-6
	c-4.6,0.8-9.7,2.2-15.4,4.6C25.7,129.3,14,128,9,127V95.3c0-8.5,6.6-15.4,15.1-15.8c1.9-0.1,3.4-1.6,3.4-3.5v-15h24.1v15
	c0,1.9,1.5,3.4,3.4,3.5c8.5,0.4,15.1,7.3,15.1,15.8v23.4c-1.9-0.3-4.5-0.5-7.5-0.5v-14.4c0-5.8-3.6-10.7-8.7-12.6
	c-1.5-0.6-3.1-0.9-4.9-0.9c-1.3,0-2.3,1.1-2.3,2.3c0,1.3,1,2.3,2.3,2.3c4.9,0,8.9,4,8.9,8.9v14.7v6v29.3c0,1.3,1,2.3,2.3,2.3
	c1.3,0,2.4-1,2.4-2.3v-29.5c3.2,0,5.8,0.3,7.5,0.6v52.6c0,2.2-1.8,3.9-3.9,3.9H12.9C10.8,181.2,9,179.5,9,177.3z"/>
<path id="XMLID_24_" class="st0" d="M24.8,91.6c-5,0-9,4-9,9c0,5,4,9,9,9c5,0,9-4,9-9C33.8,95.6,29.7,91.6,24.8,91.6z M24.8,104.9
	c-2.4,0-4.3-1.9-4.3-4.3c0-2.4,1.9-4.3,4.3-4.3c2.4,0,4.3,1.9,4.3,4.3C29.1,103,27.1,104.9,24.8,104.9z"/>
<path id="XMLID_18_" class="st0" d="M142.4,192.5c31,0,56.3-25.3,56.3-56.3c0-24.8-16.1-46.5-39.6-53.8V45.7h0.4c5,0,9-4.1,9-9v-5.9
	c0-4.7-3.6-8.6-8.3-9l1.2-15c0.1-1-0.3-1.9-0.9-2.7S158.9,3,157.9,3h-31.1c-1,0-1.9,0.4-2.6,1.1c-0.7,0.7-1,1.7-0.9,2.7l1.2,15
	c-4.6,0.4-8.3,4.2-8.3,9v6c0,5,4,9,9,9h0.4v36.7c-23.4,7.3-39.6,29-39.6,53.8C86.1,167.3,111.3,192.5,142.4,192.5z M154.1,10
	l-0.9,11.7h-21.6L130.6,10H154.1z M125.3,38.7c-1.1,0-2-0.9-2-2v-6c0-1.1,0.9-2,2-2h3h31.1c1.1,0,2.1,0.9,2.1,2.1v5.9
	c0,1.1-0.9,2-2,2h-3.9h-26.4H125.3z M130,88.5c1.6-0.4,2.6-1.8,2.6-3.4V45.7H152v39.4c0,1.6,1.1,3,2.6,3.4
	c20.6,5.3,35.3,23.3,36.8,44.3c-8,0.9-22.6,0.5-48.4-5.2l-0.4-0.1c-17.7-3.9-34.1-3.7-48.9,0.3C97.1,109,111.1,93.4,130,88.5z
	 M93.1,135.4c14.3-4.5,30.4-4.9,48-1l0.4,0.1c17.4,3.9,31.6,5.8,42.6,5.8c2.6,0,5-0.1,7.3-0.3c-1.9,25.5-23.1,45.6-49.1,45.6
	c-27.2,0-49.3-22.1-49.3-49.3C93.1,135.9,93.1,135.6,93.1,135.4z"/>
<path id="XMLID_2_" class="st0" d="M124.5,171.8c2.2,0.7,4.6,1,6.9,1.1c1.2,0,2.3-0.9,2.4-2c0-0.2,0.1-0.3,0.1-0.5
	c0-0.3,0-1.4-1.3-2.2l-7.1-3.4c-0.7-0.4-1-1.2-0.7-2c0.4-0.7,1.2-1,2-0.7l7.1,3.4c1.4,0.5,2.3-0.1,2.5-0.3c0.1-0.1,0.2-0.3,0.3-0.4
	c0.8-0.9,0.8-2.2,0.1-3.2c-1.5-1.8-3.2-3.4-5.1-4.7c-5.7-3.9-12.9-5-19.8-3l-3.4,1l1.4,3.3C112.6,164.9,117.9,169.8,124.5,171.8z"/>
<path id="XMLID_1_" class="st0" d="M149.7,170.6c0.2,0,0.3,0.1,0.5,0.1c0.3,0,1.4,0,2.2-1.3l3.4-7.1c0.4-0.7,1.2-1,2-0.7
	c0.7,0.4,1,1.2,0.7,2l-3.4,7.1c-0.5,1.4,0.1,2.3,0.3,2.5c0.1,0.1,0.3,0.2,0.4,0.3c0.9,0.8,2.2,0.8,3.2,0.1c1.8-1.5,3.4-3.2,4.7-5.1
	c3.9-5.7,5-12.9,3-19.8l-1-3.4l-3.3,1.4c-6.7,2.7-11.7,8.1-13.6,14.7c-0.7,2.2-1,4.6-1.1,6.9C147.7,169.4,148.6,170.4,149.7,170.6z"
	/>
</svg>
