<?xml version="1.0" encoding="utf-8"?>
<!-- Generator: Adobe Illustrator 19.0.0, SVG Export Plug-In . SVG Version: 6.00 Build 0)  -->
<svg version="1.1" id="Capa_1" xmlns="http://www.w3.org/2000/svg" xmlns:xlink="http://www.w3.org/1999/xlink" x="0px" y="0px"
	 viewBox="0 0 200 200" style="enable-background:new 0 0 200 200;" xml:space="preserve">
<style type="text/css">
	.st0{fill:#FFFFFF;}
</style>
<path id="XMLID_8_" class="st0" d="M67.9,109.2L48.6,72.6c-0.7-1.2-1.9-2-3.3-2c-1.4,0-2.7,0.8-3.3,2l-19.3,36.6
	c-2.5,5.1-3.3,10.3-2.3,15.7c2.2,11.8,12.4,20.7,24.3,20.9c0.2,0,0.4,0,0.6,0c6.7,0,12.9-2.5,17.7-7.2c4.9-4.8,7.6-11.3,7.6-18.1
	C70.6,116.7,69.7,112.9,67.9,109.2z M44.8,138.3c-8.4-0.2-15.5-6.4-17.1-14.8c-0.7-3.7-0.1-7.4,1.6-10.8l15.9-30.2l15.9,30.2
	c1.3,2.6,1.9,5.2,1.9,7.8c0,4.8-1.9,9.4-5.4,12.7S49.7,138.5,44.8,138.3z"/>
<path id="XMLID_2_" class="st0" d="M43.6,128.9c-0.4,0-0.9-0.1-1.3-0.1c-3.2-0.6-5.9-3.2-6.5-6.6c-0.2-1.3-0.1-2.5,0.3-3.8
	c0.1-0.4,0.3-0.8,0.5-1.2c0.5-0.9,0.1-2.1-0.9-2.5c-0.9-0.5-2.1-0.1-2.5,0.9c-1.2,2.4-1.5,4.8-1.1,7.3c1,5.5,5.8,9.7,11.4,9.8
	c1.1,0,1.9-0.8,1.9-1.8C45.4,129.8,44.6,128.9,43.6,128.9z"/>
<path id="XMLID_1_" class="st0" d="M76.1,163.8c-3,5.1-6.9,7-11.5,9.2c-2.4,1.1-4.9,2.3-7.3,4c-3.6,2.5-5.1,6.4-4.1,10.4
	c1.5,5.6,8,10.7,14.5,11.4c1.3,0.1,3.1,0.2,5.2,0.2c8.7,0,23-1.4,29.8-6.9c2.7-2.2,5.9-7,11.4-15.2c8.9-13.4,21.1-31.7,33.3-39
	c1.7-1,3.3-2,4.9-2.9c15-8.8,25.9-15.1,27-32.6c0.7-11.4-6.8-20.4-12.9-27.6c-4.1-4.9-8-9.5-7.9-12.8c0-0.4,1.8-26.4,4.3-59.9H154
	c-2.5,33.3-4.2,59-4.2,59.5c-0.2,6.8,4.7,12.7,9.9,18.9c5.6,6.6,11.4,13.5,10.8,21.4c-0.8,12.9-8.1,17.1-22.6,25.6
	c-1.6,0.9-3.3,1.9-5,2.9c-13.9,8.3-26.7,27.6-36.1,41.7c-3.9,5.8-7.9,11.8-9.7,13.3c-5.4,4.4-21.6,5.4-28.5,4.8
	c-3.1-0.3-6.4-2.9-6.9-4.8c-0.1-0.2-0.1-0.4,0.6-0.9c1.8-1.3,3.9-2.3,6.1-3.3c5.1-2.5,10.9-5.2,15.3-12.7
	c4.3-7.4,25.1-93.9,26-105.2c1.3-15.7,1.4-37.4,0.8-61.1h-8.8c0.6,23.6,0.5,45.1-0.7,60.4C99.9,75.6,79,158.4,76.1,163.8z"/>
</svg>
