<?xml version="1.0" encoding="utf-8"?>
<!-- Generator: Adobe Illustrator 19.0.0, SVG Export Plug-In . SVG Version: 6.00 Build 0)  -->
<svg version="1.1" id="Capa_1" xmlns="http://www.w3.org/2000/svg" xmlns:xlink="http://www.w3.org/1999/xlink" x="0px" y="0px"
	 viewBox="0 0 200 200" style="enable-background:new 0 0 200 200;" xml:space="preserve">
<style type="text/css">
	.st0{fill:#FFFFFF;}
</style>
<path id="XMLID_5_" class="st0" d="M51.5,102.9c-7.2,4.2-11.5,9.4-11.5,14.9c0,14,27,25.4,60.2,25.4c33.3,0,60.2-11.4,60.2-25.4
	c0-5.6-4.3-10.7-11.5-14.9c-0.7-0.4-1.4,0.6-0.8,1.1c2.5,2.3,3.8,4.9,3.8,7.6c0,11.1-23.1,20-51.7,20s-51.7-9-51.7-20
	c0-2.7,1.4-5.2,3.8-7.6C52.9,103.4,52.2,102.4,51.5,102.9z"/>
<path id="XMLID_4_" class="st0" d="M175.8,104.6c-0.8-0.5-1.5,0.8-0.8,1.4c6,5.2,9.4,11.1,9.4,17.3c0,20.8-37.7,37.6-84.3,37.6
	c-46.6,0-84.3-16.8-84.3-37.6c0-6.2,3.4-12.1,9.4-17.3c0.7-0.6,0-1.9-0.8-1.4C10.4,112.9,1.9,123.5,1.9,135
	c0,26.3,44,47.6,98.2,47.6c54.3,0,98.2-21.3,98.2-47.6C198.4,123.5,189.9,112.9,175.8,104.6z"/>
<path id="XMLID_3_" class="st0" d="M103.7,43.9c-0.5,1-0.7,2.2-1.3,3.2c-0.6,1-1,2.1-1.8,3.1c-0.8,1-1.4,2-2.2,3l-2.8,3.2l-3,3.5
	c-0.5,0.5-1,1.4-1.5,2.2l-1.5,2.4c-1.8,3.3-2.9,6.6-3.5,10c-0.2,1.7-0.3,3.4-0.3,5c0.2,1.6,0.3,3.2,0.6,4.7c0.7,3,1.7,5.6,2.9,7.9
	c2.4,4.5,5.3,7.4,7.4,9.3c2.1,1.9,3.6,2.6,3.6,2.6s-0.7-1.5-1.6-4c-0.5-1.2-0.9-2.8-1.5-4.5c-0.5-1.7-0.9-3.7-1.2-5.7
	c-0.3-2.1-0.4-4.2-0.4-6.4c0.1-1.1,0.2-2.2,0.3-3.3c0.3-1.1,0.5-2.2,0.8-3.3c0.5-1,0.7-2.2,1.3-3.2l0.8-1.5c0.3-0.5,0.5-1.1,0.9-1.5
	l1-1.3c0.3-0.5,0.5-0.9,1.1-1.5l3-3.4l3.1-3.7c1.1-1.3,1.9-3,2.9-4.5c1.7-3.1,2.9-6.6,3.4-10c0.3-1.7,0.3-3.4,0.3-5
	c-0.2-1.6-0.3-3.2-0.6-4.7c-0.7-3-1.7-5.6-2.8-7.9c-2.4-4.5-5.2-7.4-7.4-9.3c-2.1-1.9-3.6-2.6-3.6-2.6s0.7,1.5,1.6,4
	c0.5,1.2,0.9,2.8,1.5,4.5c0.5,1.7,0.9,3.7,1.2,5.7c0.3,2.1,0.4,4.2,0.4,6.5c-0.1,1.1-0.2,2.2-0.3,3.3
	C104.2,41.8,104.1,42.9,103.7,43.9z"/>
<path id="XMLID_2_" class="st0" d="M135.5,43.9c-0.5,1-0.7,2.2-1.3,3.2c-0.6,1-1,2.1-1.8,3.1c-0.8,1-1.4,2-2.2,3l-2.8,3.2l-3,3.5
	c-0.5,0.5-1,1.4-1.5,2.2l-1.5,2.4c-1.8,3.3-2.9,6.6-3.5,10c-0.2,1.7-0.3,3.4-0.3,5c0.2,1.6,0.3,3.2,0.6,4.7c0.7,3,1.7,5.6,2.9,7.9
	c2.4,4.5,5.3,7.4,7.4,9.3c2.1,1.9,3.6,2.6,3.6,2.6s-0.7-1.5-1.6-4c-0.5-1.2-0.9-2.8-1.5-4.5c-0.5-1.7-0.9-3.7-1.2-5.7
	c-0.3-2.1-0.4-4.2-0.4-6.4c0.1-1.1,0.2-2.2,0.3-3.3c0.3-1.1,0.5-2.2,0.8-3.3c0.5-1,0.7-2.2,1.3-3.2l0.8-1.5c0.3-0.5,0.5-1.1,0.9-1.5
	l1-1.3c0.3-0.5,0.5-0.9,1.1-1.5l3-3.4l3.1-3.7c1.1-1.3,1.9-3,2.9-4.5c1.7-3.1,2.9-6.6,3.4-10c0.3-1.7,0.3-3.4,0.3-5
	c-0.2-1.6-0.3-3.2-0.6-4.7c-0.7-3-1.7-5.6-2.8-7.9c-2.4-4.5-5.2-7.4-7.4-9.3c-2.1-1.9-3.6-2.6-3.6-2.6s0.7,1.5,1.6,4
	c0.5,1.2,1,2.8,1.5,4.5c0.5,1.7,0.9,3.7,1.2,5.7c0.3,2.1,0.4,4.2,0.4,6.5c-0.1,1.1-0.2,2.2-0.3,3.3C136,41.8,135.9,42.9,135.5,43.9z
	"/>
<path id="XMLID_1_" class="st0" d="M71.9,43.9c-0.5,1-0.7,2.2-1.3,3.2c-0.6,1-1,2.1-1.8,3.1c-0.8,1-1.4,2-2.2,3l-2.8,3.2l-3,3.5
	c-0.5,0.5-1,1.4-1.5,2.2l-1.5,2.4c-1.8,3.3-2.9,6.6-3.5,10c-0.2,1.7-0.3,3.4-0.3,5c0.2,1.6,0.3,3.2,0.6,4.7c0.7,3,1.7,5.6,2.9,7.9
	c2.4,4.5,5.3,7.4,7.4,9.3c2.1,1.9,3.6,2.6,3.6,2.6s-0.7-1.5-1.6-4c-0.5-1.2-0.9-2.8-1.5-4.5c-0.5-1.7-0.9-3.7-1.2-5.7
	c-0.3-2.1-0.4-4.2-0.4-6.4c0.1-1.1,0.2-2.2,0.3-3.3c0.3-1.1,0.5-2.2,0.8-3.3c0.5-1,0.7-2.2,1.3-3.2L67,72c0.3-0.5,0.5-1.1,0.9-1.5
	l1-1.3c0.3-0.5,0.5-0.9,1.1-1.5l3-3.4l3.1-3.7c1.1-1.3,1.9-3,2.9-4.5c1.7-3.1,2.9-6.6,3.4-10c0.3-1.7,0.3-3.4,0.3-5
	c-0.2-1.6-0.3-3.2-0.6-4.7c-0.7-3-1.7-5.6-2.8-7.9c-2.4-4.5-5.2-7.4-7.4-9.3c-2.1-1.9-3.6-2.6-3.6-2.6s0.7,1.5,1.6,4
	c0.5,1.2,0.9,2.8,1.5,4.5c0.5,1.7,0.9,3.7,1.2,5.7c0.3,2.1,0.4,4.2,0.4,6.5c-0.1,1.1-0.2,2.2-0.3,3.3C72.4,41.8,72.3,42.9,71.9,43.9
	z"/>
</svg>
