<?xml version="1.0" encoding="utf-8"?>
<!-- Generator: Adobe Illustrator 19.0.0, SVG Export Plug-In . SVG Version: 6.00 Build 0)  -->
<svg version="1.1" id="Capa_1" xmlns="http://www.w3.org/2000/svg" xmlns:xlink="http://www.w3.org/1999/xlink" x="0px" y="0px"
	 viewBox="0 0 200 200" style="enable-background:new 0 0 200 200;" xml:space="preserve">
<style type="text/css">
	.st0{fill:#FFFFFF;}
</style>
<path id="XMLID_6_" class="st0" d="M92.5,142.6c-0.9-6.1-1.8-12.7-2.5-19.2c-0.9,3.3-1.8,6.2-2.7,8.6c-0.4,1.1-0.8,2.1-1.1,3
	c-0.6,1.5-1.1,2.8-1.7,4c0.2,1.5,0.4,3.1,0.6,4.6c0.8,5.8,1.6,11.2,2.1,15.9c2.2,20.6-4.3,30.7-20.9,32.4
	c-22.2,2.4-27.7-16.1-29-24.2c-0.7-4.2-2.2-12.9-4.2-24c-1.4-1.8-3.2-4.2-5.1-7.2c-1.8-2.9-3.8-6.3-5.6-10.1
	c0.8,4.2,1.5,8.3,2.2,12.3c2.6,14.2,4.6,25.3,5.4,30.3c2.5,15.2,12.4,30.6,32.5,30.6c1.5,0,3-0.1,4.6-0.3
	c20.9-2.2,30.1-15.9,27.5-40.6C94.1,154,93.3,148.5,92.5,142.6z"/>
<path id="XMLID_5_" class="st0" d="M20.3,71.6c-3-17.5,0.3-34.3,8.9-46.3C35.4,16.6,44,11.1,54,9.5C56.1,9.2,58.1,9,60,9
	c16.1,0,22.4,11.6,24.7,19.1c3.8,12.2,3.3,27.6,1.7,40.9c0.5,1.2,0.9,2.2,1.1,2.9c0.6,1.3,1.2,2.7,1.7,4c1,2.7,1.8,5.5,2.4,8.2
	c2.7-15.7,5.9-39.9,0.2-58.3C89.6,19.3,80.7-2.2,52.8,2.3C41.1,4.1,30.5,10.8,23.1,21C13.4,34.6,9.7,53.4,13,72.8
	c0.8,4.9,1.7,10.1,2.7,15.5c0.4-3.1,1.2-6.2,2.1-9.3c0.7-2.3,1.6-4.6,2.6-6.8C20.3,72,20.3,71.8,20.3,71.6z"/>
<path id="XMLID_4_" class="st0" d="M30.9,132c2.2,3.7,4.4,6.8,6.1,9c1.1,1.5,2.3,3,3.7,4.5c0.2,0.3,0.5,0.5,0.8,0.6
	c0.1,0,0.1,0.1,0.2,0.1c0.3,0.1,0.6,0.3,0.8,0.3c0.3,0.1,0.6,0.1,0.9,0c0.1,0,0.1,0,0.2,0c0.3,0,0.6-0.1,0.9-0.2
	c0.3-0.1,0.5-0.3,0.8-0.4c0.1,0,0.1-0.1,0.2-0.1c0.2-0.2,0.4-0.4,0.6-0.6c0.2-0.2,0.3-0.5,0.4-0.8c0-0.1,0-0.2,0.1-0.2
	c0.1-0.3,0.1-0.6,0.1-1c0-0.1,0-0.1,0-0.2c-0.2-5.4-3.9-11.9-9.1-20.2c-5.2-8.3-9.2-15.9-9.9-19.3c-0.7-3.3-1.5-24.1,24.7-52.7
	c0.2-0.3,0.5-0.4,0.8-0.6c0.1,0,0.2,0,0.3-0.1c0.2-0.1,0.4-0.1,0.6-0.1c0.2,0,0.4,0.1,0.6,0.1c0.1,0,0.2,0,0.3,0.1
	c0.3,0.1,0.6,0.3,0.8,0.6c6.9,8.1,30.3,36,24.3,60.3c0,0-6.6,17.9-8.5,22.7c-0.2,0.6-0.4,1.2-0.5,1.8c-0.1,0.6-0.2,1.2-0.3,1.8
	c0,0.7,0,1.2,0,1.7c0,0,0,0.1,0,0.1c0,0.5,0.1,1,0.2,1.5c0,0.1,0,0.1,0,0.2c0.1,0.5,0.3,0.9,0.5,1.3c0,0,0,0.1,0.1,0.1
	c0.2,0.4,0.4,0.7,0.6,1c0,0,0.1,0.1,0.1,0.1c0.2,0.3,0.5,0.5,0.8,0.6c0,0,0.1,0,0.1,0.1c0.3,0.1,0.6,0.2,1,0.2c0.1,0,0.2,0,0.3,0
	c2.1-0.2,4.7-4.7,7.1-10.9c0.5-1.3,1-2.7,1.6-4.4c0.9-2.7,1.9-5.8,2.7-9.3c2.2-9.1,3.5-20.6,1.3-32.2c-0.5-2.8-1.3-5.7-2.3-8.5
	c-0.6-1.7-1.2-3.3-2-4.9c-3.7-10-12.2-27-23.9-37.2c-0.3-0.3-0.6-0.5-1-0.7c-0.1-0.1-0.2-0.1-0.4-0.2c-0.2-0.1-0.4-0.2-0.7-0.3
	c-0.1-0.1-0.3-0.1-0.4-0.1c-0.2-0.1-0.4-0.1-0.7-0.2c-0.2,0-0.3,0-0.5,0c-0.2,0-0.4-0.1-0.6-0.1c-0.2,0-0.4,0-0.6,0
	c-0.2,0-0.3,0-0.5,0c-0.2,0-0.4,0.1-0.6,0.2c-0.1,0-0.3,0.1-0.4,0.1c-0.2,0.1-0.5,0.2-0.7,0.3C52,36,51.8,36,51.7,36.1
	c-0.3,0.2-0.7,0.4-1,0.6c-6.5,5-18.9,16.8-25.7,37c-1.3,2.7-2.3,5.5-3.1,8.1c-1,3.6-1.6,7.2-1.9,10.8c-0.7,10.2,1.6,19.7,4.9,27.8
	C26.9,124.7,28.9,128.6,30.9,132z"/>
<path id="XMLID_3_" class="st0" d="M146.7,2.3c-27.8-4.4-36.8,17-38.9,23.7c-5.7,18.4-2.6,42.6,0.2,58.3c0.6-2.7,1.4-5.5,2.4-8.2
	c0.5-1.4,1-2.7,1.7-4c0.3-0.7,0.6-1.7,1.1-2.9c-1.6-13.3-2.1-28.8,1.7-40.9c2.6-8.4,10.1-21.9,30.7-18.6c9.9,1.6,18.5,7,24.8,15.8
	c8.6,11.9,11.8,28.8,8.9,46.3c0,0.2-0.1,0.4-0.1,0.6c1,2.2,1.9,4.5,2.6,6.8c1,3,1.7,6.1,2.1,9.3c0.9-5.4,1.8-10.6,2.7-15.5
	c3.3-19.4-0.4-38.3-10.1-51.8C169,10.8,158.4,4.1,146.7,2.3z"/>
<path id="XMLID_2_" class="st0" d="M114.3,143.7c0.2-1.5,0.4-3.1,0.6-4.6c-0.5-1.2-1.1-2.5-1.6-3.9c-0.4-0.9-0.7-1.9-1.1-3.1
	c-0.9-2.4-1.8-5.3-2.7-8.6c-0.7,6.5-1.6,13.2-2.5,19.2c-0.8,5.8-1.6,11.4-2.1,16.1c-2.6,24.7,6.6,38.3,27.5,40.6
	c1.6,0.2,3.1,0.3,4.6,0.3c20.2,0,30-15.4,32.5-30.6c0.8-5,2.8-16.2,5.4-30.5c0.7-3.9,1.4-7.9,2.2-12.1c-1.8,3.8-3.7,7.2-5.6,10.1
	c-1.9,3-3.7,5.5-5.1,7.2c-2,11.1-3.5,19.8-4.2,24c-1.3,8.1-6.8,26.6-29,24.2c-16.7-1.8-23.1-11.8-20.9-32.4
	C112.7,154.9,113.5,149.5,114.3,143.7z"/>
<path id="XMLID_1_" class="st0" d="M177.5,81.8c-0.8-2.7-1.8-5.4-3.1-8.1c-6.7-20.2-19.1-32-25.7-37c-0.3-0.2-0.6-0.4-1-0.6
	c-0.1-0.1-0.2-0.1-0.4-0.2c-0.2-0.1-0.4-0.2-0.7-0.3c-0.1,0-0.3-0.1-0.4-0.1c-0.2-0.1-0.4-0.1-0.6-0.2c-0.2,0-0.3,0-0.5,0
	c-0.2,0-0.4,0-0.6,0c-0.2,0-0.4,0-0.6,0.1c-0.2,0-0.3,0-0.5,0c-0.2,0-0.4,0.1-0.7,0.2c-0.1,0-0.3,0.1-0.4,0.1
	c-0.2,0.1-0.5,0.2-0.7,0.3c-0.1,0.1-0.2,0.1-0.3,0.2c-0.3,0.2-0.7,0.4-1,0.7C128.6,47,120.1,64,116.5,74c-0.8,1.6-1.4,3.2-2,4.9
	c-1,2.8-1.7,5.7-2.3,8.5c-2.2,11.7-0.8,23.1,1.3,32.2c0.8,3.5,1.8,6.6,2.7,9.3c0.6,1.6,1.1,3.1,1.6,4.4c2.4,6.3,5,10.7,7.1,10.9
	c0.1,0,0.2,0,0.3,0c0.3,0,0.7-0.1,1-0.2c0,0,0.1,0,0.1-0.1c0.3-0.2,0.6-0.4,0.8-0.6c0,0,0.1-0.1,0.1-0.1c0.2-0.3,0.5-0.6,0.6-1
	c0,0,0-0.1,0.1-0.1c0.2-0.4,0.3-0.8,0.5-1.3c0-0.1,0-0.1,0-0.2c0.1-0.5,0.2-1,0.2-1.5c0,0,0-0.1,0-0.1c0-0.5,0.1-1.1,0-1.6
	c0-0.7-0.1-1.3-0.2-1.8c-0.1-0.7-0.3-1.2-0.5-1.8c-1.9-4.8-8.5-22.7-8.5-22.7c-6-24.3,17.4-52.2,24.3-60.3c0.2-0.3,0.5-0.5,0.8-0.6
	c0.1,0,0.2,0,0.3-0.1c0.2-0.1,0.4-0.1,0.6-0.1c0.2,0,0.4,0.1,0.6,0.1c0.1,0,0.2,0,0.3,0.1c0.3,0.1,0.6,0.3,0.8,0.6
	c26.2,28.6,25.3,49.3,24.7,52.7c-0.7,3.4-4.7,11-9.9,19.3c-5.2,8.3-8.9,14.9-9.1,20.2c0,0.1,0,0.1,0,0.2c0,0.4,0.1,0.7,0.1,1
	c0,0.1,0,0.2,0.1,0.2c0.1,0.3,0.2,0.6,0.4,0.8c0.2,0.2,0.4,0.5,0.6,0.6c0.1,0,0.1,0.1,0.2,0.1c0.5,0.3,1,0.6,1.6,0.6
	c0.1,0,0.1,0,0.2,0c0.3,0,0.6,0,0.9,0c0.3-0.1,0.6-0.2,0.9-0.3c0.1,0,0.1-0.1,0.2-0.1c0.3-0.2,0.5-0.4,0.8-0.6
	c1.3-1.5,2.5-3,3.7-4.5c1.7-2.2,3.9-5.3,6.1-9c2-3.4,4.1-7.3,5.8-11.6c3.3-8.1,5.6-17.6,4.9-27.8C179.1,89.1,178.5,85.5,177.5,81.8z
	"/>
</svg>
