<?xml version="1.0" encoding="utf-8"?>
<!-- Generator: Adobe Illustrator 19.0.0, SVG Export Plug-In . SVG Version: 6.00 Build 0)  -->
<svg version="1.1" id="Capa_1" xmlns="http://www.w3.org/2000/svg" xmlns:xlink="http://www.w3.org/1999/xlink" x="0px" y="0px"
	 viewBox="0 0 200 200" style="enable-background:new 0 0 200 200;" xml:space="preserve">
<style type="text/css">
	.st0{fill:#FFFFFF;}
</style>
<path id="XMLID_6_" class="st0" d="M30.2,153.3v-27.2h7.6v27.2c0,3.1,2.5,5.7,5.7,5.7c3.1,0,5.7-2.5,5.7-5.7v-27.2h7.6v27.2
	c0,3.1,2.5,5.7,5.7,5.7c3.1,0,5.7-2.5,5.7-5.7v-27.2h7.6v27.2c0,3.1,2.5,5.7,5.7,5.7s5.7-2.5,5.7-5.7v-27.2h7.6v27.2
	c0,3.1,2.5,5.7,5.7,5.7c3.1,0,5.7-2.5,5.7-5.7v-27.2h7.6v27.2c0,3.1,2.5,5.7,5.7,5.7c3.1,0,5.7-2.5,5.7-5.7v-27.2h7.6v27.2
	c0,3.1,2.5,5.7,5.7,5.7s5.7-2.5,5.7-5.7v-27.2h7.6v27.2c0,3.1,2.5,5.7,5.7,5.7c3.1,0,5.7-2.5,5.7-5.7v-27.2h7.6v27.2
	c0,3.1,2.5,5.7,5.7,5.7c3.1,0,5.7-2.5,5.7-5.7V125c9.6-3,16.5-11.9,16.5-22.5V75.9c0-13-10.6-23.6-23.6-23.6H25.8
	c-13,0-23.6,10.6-23.6,23.6v26.7c0,10.5,7,19.5,16.5,22.5v28.3c0,3.1,2.5,5.7,5.7,5.7S30.2,156.5,30.2,153.3z M10.8,75.9
	c0-8.3,6.7-15,15-15h148.6c8.3,0,15,6.7,15,15v26.7c0,5.8-3.3,10.7-8,13.2c-2.1,1.1-4.5,1.8-7,1.8h-4.3h-7.6h-11.3h-7.6h-11.3h-7.6
	h-11.3h-7.6H94.5h-7.6H75.5H68H56.6h-7.6H37.7h-7.6h-4.3c-2.5,0-4.9-0.7-7-1.8c-4.8-2.5-8-7.5-8-13.2V75.9z"/>
<path id="XMLID_1_" class="st0" d="M37,83.8h126.2c9.3,0,16.6-5,16.6-11.4c0-1.6-1.3-2.8-2.8-2.8s-2.8,1.3-2.8,2.8
	c0,2.7-4.7,5.7-10.9,5.7H37c-6.3,0-10.9-3-10.9-5.7c0-1.6-1.3-2.8-2.8-2.8c-1.6,0-2.8,1.3-2.8,2.8C20.4,78.8,27.7,83.8,37,83.8z"/>
</svg>
