<?xml version="1.0" encoding="utf-8"?>
<!-- Generator: Adobe Illustrator 19.0.0, SVG Export Plug-In . SVG Version: 6.00 Build 0)  -->
<svg version="1.1" id="Capa_1" xmlns="http://www.w3.org/2000/svg" xmlns:xlink="http://www.w3.org/1999/xlink" x="0px" y="0px"
	 viewBox="0 0 200 200" style="enable-background:new 0 0 200 200;" xml:space="preserve">
<style type="text/css">
	.st0{fill:#FFFFFF;}
</style>
<path id="XMLID_7_" class="st0" d="M70.7,193c0.4,0.1,0.8,0.2,1.2,0.2c7.7,2.7,17.6,4.1,28.1,4.1c10.5,0,20.4-1.5,28.1-4.1
	c0.4,0,0.8-0.1,1.2-0.2c0.7-0.2,70.7-24.1,70.7-94.6c0-15.3-18.7-27.8-51.5-34.6l8-21.3c4.1-2.8,10.5-8.1,11.5-14.1
	c1.4-7.7-5.7-15.5-19.3-21.3c-13.6-5.8-24.1-5.6-28.7,0.7c-3.6,4.9-3,13.1-2.2,18l-16.1,33.2l-1.6,0C43,59.2,0,76.1,0,98.4
	C0,169,70,192.8,70.7,193z M126.1,26.1c-0.8-4.1-1.3-11,0.5-13.3c1.7-2.3,8.2-2.6,18.9,2c10.7,4.6,14.9,9.5,14.4,12.3
	c-0.5,2.9-5.8,7.3-9.3,9.5c-0.5,0.3-1,0.8-1.2,1.4l-25,66.6c-6.4,0.8-14.3,1.4-23.5,1.4c-4.3,0-8.5-0.1-12.6-0.4L125.9,28
	C126.2,27.4,126.2,26.8,126.1,26.1z M66.8,102.7c-1.5-0.4-3.1,0.6-3.5,2.1c-0.4,1.6,0.6,3.1,2.1,3.5c5,1.2,11.3,2.2,18.3,2.8
	c5.5,0.5,11.2,0.7,17.1,0.7c4.9,0,48.3-0.3,48.3-12.4c0-4-4.3-6.8-13.3-9l2.6-6.9c23,4.1,33.5,10.9,33.5,15.7
	c0,7.9-27.4,18.9-72,18.9c-44.6,0-72-11-72-18.9c0-8.4,26.9-17.9,66.1-18.8l-12,24.8C76.3,104.6,71.1,103.8,66.8,102.7z M133.9,95.9
	c6,1.4,8.6,2.8,9.3,3.6c-1.2,1.2-5.4,2.8-12.2,4.1L133.9,95.9z M96.9,74.6c-37.4,0.4-74.7,9-74.7,24.7c0,16,40.1,24.7,77.8,24.7
	c37.7,0,77.8-8.7,77.8-24.7c0-12.6-23.9-18.8-37.3-21.3l2.5-6.8c29.2,5.4,48.7,16.3,48.7,27.2c0,61.8-59.1,84.6-64.7,86.6
	c-0.4,0-0.7,0.1-1,0.2c-6.9,2.5-16.2,3.9-26.1,3.9c-9.9,0-19.2-1.4-26.1-3.9c-0.3-0.1-0.7-0.2-1-0.2c-5.6-2-64.7-24.9-64.7-86.6
	c0-15,36.9-31,91.8-31c0.1,0,0.2,0,0.4,0L96.9,74.6z"/>
</svg>
