<?xml version="1.0" encoding="utf-8"?>
<!-- Generator: Adobe Illustrator 21.0.0, SVG Export Plug-In . SVG Version: 6.00 Build 0)  -->
<svg version="1.1" id="Capa_1" xmlns="http://www.w3.org/2000/svg" xmlns:xlink="http://www.w3.org/1999/xlink" x="0px" y="0px"
	 viewBox="0 0 400 400" style="enable-background:new 0 0 400 400;" xml:space="preserve">
<style type="text/css">
	.st0{fill:#FFFFFF;}
</style>
<path class="st0" d="M311.4,101c-3.2,25.3-16.4,47.5-35.5,62.5c-0.9,0.7-1.9,1.5-2.9,2.2c-0.3,0.2-0.5,0.4-0.8,0.5
	c-0.8,0.6-1.6,1.1-2.4,1.6c-0.3,0.2-0.6,0.4-0.9,0.6c-0.8,0.5-1.7,1.1-2.6,1.6c-0.2,0.1-0.5,0.3-0.7,0.4c-1.1,0.7-2.2,1.3-3.4,1.9
	c-0.1,0-0.1,0.1-0.2,0.1c-1,0.6-2.1,1.1-3.2,1.6c-0.3,0.2-0.7,0.3-1,0.5c-0.8,0.4-1.6,0.8-2.4,1.1c-0.4,0.2-0.8,0.3-1.2,0.5
	c-0.8,0.3-1.6,0.7-2.5,1c-0.4,0.1-0.7,0.3-1.1,0.4c-1.2,0.4-2.4,0.9-3.6,1.3c50.9,25.5,44.6,89,34.8,128.3
	c-2.1,8.5-4.4,15.9-6.3,21.6c0,0,0,0,0,0.1c-1.8,5.3-3.2,9-3.9,10.6c-0.2,0.4-0.3,0.7-0.4,0.9c0,0.1,0,0.1,0,0.1s0,0,0,0
	c-17.4,27.3-43.1,44.7-71.9,44.7c-29.7,0-56.2-18.5-73.6-47.4c0,0,0,0,0-0.1c0,0,0-0.1,0-0.1c0-0.1,0-0.1-0.1-0.2
	c0-0.1,0-0.1-0.1-0.2c0-0.1-0.1-0.2-0.1-0.3c0-0.1-0.1-0.2-0.1-0.3c0-0.1-0.1-0.2-0.1-0.3c0-0.1-0.1-0.3-0.1-0.5
	c0-0.1-0.1-0.3-0.1-0.4c-0.1-0.2-0.1-0.4-0.2-0.6c0-0.2-0.1-0.3-0.1-0.5c-0.1-0.2-0.1-0.4-0.2-0.7c0-0.2-0.1-0.3-0.1-0.5
	c-0.1-0.3-0.1-0.6-0.2-0.9c0-0.1-0.1-0.3-0.1-0.5c-0.1-0.3-0.2-0.7-0.3-1c0-0.1-0.1-0.2-0.1-0.4c-0.5-1.9-1-4.1-1.5-6.6
	c0-0.1,0-0.2-0.1-0.3c-0.1-0.5-0.2-1.1-0.4-1.7c0-0.2-0.1-0.3-0.1-0.5c-0.1-0.6-0.2-1.1-0.3-1.7c0-0.2-0.1-0.4-0.1-0.6
	c-0.1-0.6-0.2-1.2-0.3-1.8c0-0.2-0.1-0.4-0.1-0.6c-0.1-0.6-0.2-1.2-0.3-1.9c0-0.2-0.1-0.4-0.1-0.6c-0.1-0.7-0.2-1.3-0.4-2
	c0-0.2-0.1-0.3-0.1-0.5c-0.1-0.7-0.2-1.5-0.4-2.2c0-0.1,0-0.2,0-0.3c-0.8-5.3-1.5-11-2-17.2c0-0.1,0-0.1,0-0.2
	c-0.1-0.9-0.1-1.9-0.2-2.9c0-0.1,0-0.3,0-0.4c-0.1-0.9-0.1-1.9-0.2-2.8c0-0.2,0-0.3,0-0.5c0-0.9-0.1-1.9-0.1-2.9c0-0.2,0-0.3,0-0.5
	c0-1-0.1-2-0.1-2.9c0-0.1,0-0.2,0-0.3c-0.1-7.7,0.3-15.7,1.3-23.8c0,0,0,0,0,0c0.1-1.1,0.3-2.2,0.5-3.3c0-0.1,0-0.2,0-0.3
	c0.2-1,0.3-2.1,0.5-3.1c0-0.1,0-0.3,0.1-0.4c0.2-1,0.4-2.1,0.6-3.1c0-0.1,0.1-0.3,0.1-0.4c0.2-1,0.5-2.1,0.7-3.1
	c0-0.1,0-0.2,0.1-0.3c1.9-7.9,4.7-15.7,8.5-23.1c0-0.1,0.1-0.1,0.1-0.2c0.5-1,1-1.9,1.6-2.9c0.1-0.1,0.1-0.3,0.2-0.4
	c0.5-0.9,1.1-1.8,1.6-2.7c0.1-0.2,0.2-0.3,0.3-0.5c0.5-0.9,1.1-1.7,1.7-2.6c0.1-0.2,0.2-0.3,0.3-0.5c0.6-0.9,1.2-1.7,1.8-2.6
	c0.1-0.1,0.2-0.3,0.3-0.4c0.7-0.9,1.3-1.7,2.1-2.6c0,0,0.1-0.1,0.1-0.1c3.9-4.7,8.4-9.1,13.7-13c0,0,0,0,0,0
	c0.9-0.7,1.9-1.4,2.9-2.1c0.2-0.1,0.3-0.2,0.5-0.4c0.9-0.6,1.9-1.2,2.8-1.8c0.3-0.2,0.5-0.3,0.8-0.5c0.9-0.6,1.9-1.1,2.8-1.7
	c0.3-0.2,0.6-0.3,0.9-0.5c1-0.5,2-1,3-1.5c0.3-0.2,0.6-0.3,1-0.5c1-0.5,2.1-1,3.1-1.4c0.3-0.1,0.6-0.3,0.9-0.4
	c1.1-0.5,2.2-0.9,3.4-1.4c0.2-0.1,0.5-0.2,0.8-0.3c1.2-0.5,2.5-0.9,3.8-1.4c9.6-3.2,20.5-5.4,33-6.4l0-0.2c1.7,0.1,3.4,0.2,5.1,0.2
	c44.1,0,79.8-35.7,79.8-79.8c0-44.1-35.7-79.8-79.8-79.8c-11.2,0-21.9,2.3-31.6,6.5l0,0C-0.5,84.2,55.5,247,115.6,340.4l0,0
	c2.7,4.7,5.6,9.1,8.7,13.4c19.8,26.8,46.5,41.5,75.1,41.5c28.6,0,55.2-14.7,75.1-41.5c1.7-2.3,3.3-4.6,4.8-7c0.9-1.2,2.1-3.2,3.7-6
	c3-5.2,5.6-10.5,8-16.1C313.8,274.9,354.7,158.4,311.4,101z M242.1,253.2c6.6,0,12.8-3,16.9-8.3c1.2-1.6,0.9-3.9-0.7-5.1
	c-1.6-1.2-3.9-0.9-5.1,0.7c-2.7,3.5-6.8,5.5-11.1,5.5c-4.2,0-8.2-1.9-10.9-5.2c-1.3-1.5-3.6-1.8-5.1-0.5c-1.5,1.3-1.8,3.6-0.5,5.1
	C229.7,250.4,235.7,253.2,242.1,253.2z M179.4,240.3c-1.5-1.3-3.8-1-5.1,0.5c-2.7,3.3-6.7,5.2-10.9,5.2c-4.4,0-8.4-2-11.1-5.5
	c-1.2-1.6-3.5-1.9-5.1-0.7c-1.6,1.2-1.9,3.5-0.6,5.1c4.1,5.3,10.2,8.3,16.9,8.3c6.4,0,12.4-2.8,16.5-7.8
	C181.2,243.9,181,241.6,179.4,240.3z M146.5,216.9c-27,40-10.4,104.1-7.3,114.9c15.3,24.7,37.2,38.8,60.2,38.8
	c22.3,0,43.7-13.4,59-36.9c9.1-22.2,26.8-83.7,6-119.8c-9.7-16.9-26.7-26.8-51.9-30.3C181.8,186.4,159.6,197.6,146.5,216.9z
	 M141.6,243.3c0-9.3,9.9-16.9,22-16.9c12.2,0,22,7.6,22,16.9c0,9.3-9.9,16.9-22,16.9C151.5,260.2,141.6,252.7,141.6,243.3z
	 M224.2,336.7c-5.5,2-13.1,3.7-21.5,3.7c-9.9,0-18.7-2.2-24.2-4.7c-3.5-1.4-6.1-3.1-6.1-4.9c0-4.8,18.3-8.7,23.1-8.7
	c3,0,5.7,1.6,7.3,3.9c1.6-2.3,4.2-3.9,7.3-3.9c4.8,0,23.1,3.9,23.1,8.7C233.1,333.1,229,335.2,224.2,336.7z M242,226.4
	c12.2,0,22,7.6,22,16.9c0,9.3-9.9,16.9-22,16.9s-22-7.6-22-16.9C219.9,234,229.8,226.4,242,226.4z"/>
</svg>
