<?xml version="1.0" encoding="utf-8"?>
<!-- Generator: Adobe Illustrator 21.0.0, SVG Export Plug-In . SVG Version: 6.00 Build 0)  -->
<svg version="1.1" id="Capa_1" xmlns="http://www.w3.org/2000/svg" xmlns:xlink="http://www.w3.org/1999/xlink" x="0px" y="0px"
	 viewBox="0 0 400 400" style="enable-background:new 0 0 400 400;" xml:space="preserve">
<style type="text/css">
	.st0{fill:#FFFFFF;stroke:#FFFFFF;stroke-miterlimit:10;}
</style>
<g>
	<path class="st0" d="M383.7,305c-0.2-0.3-5.2-7.4-46.9-65.7c-17.7-24.8-42.2-43.4-66.3-57.1c-13.3,13.2-32.6,31.5-50.4,44.7
		c23.3,10.5,49.6,26.4,65.7,49c41.1,57.4,46.4,64.9,46.6,65.2c9.9,14.2,29.5,17.7,43.7,7.7c1.1-0.8,2.1-1.6,3.1-2.4
		C390.6,335.8,392.9,318.1,383.7,305z"/>
	<path class="st0" d="M262.7,177.9c2.8-3.9,5.4-8,7.7-12.3c18-33.9,42.1-61.4,42.1-61.4s9.3-17.8-18.5-47.1
		c-26.7-30.3-45.3-22.5-45.3-22.5S219.4,56.3,184,71.3c-35.4,14.9-59,49.1-84.5,89.6C74.1,201.3,7.3,268.2,7.3,268.2
		s9.9,24.2,19.1,34.3c9.2,10.1,32.5,22,32.5,22s72.4-60.7,114.9-82.5c12.6-6.5,24.6-12.8,35.8-19.5
		C210.5,222.8,263,178.1,262.7,177.9z"/>
</g>
</svg>
