<?xml version="1.0" encoding="utf-8"?>
<!-- Generator: Adobe Illustrator 19.0.0, SVG Export Plug-In . SVG Version: 6.00 Build 0)  -->
<svg version="1.1" id="Capa_1" xmlns="http://www.w3.org/2000/svg" xmlns:xlink="http://www.w3.org/1999/xlink" x="0px" y="0px"
	 viewBox="0 0 200 200" style="enable-background:new 0 0 200 200;" xml:space="preserve">
<style type="text/css">
	.st0{fill:#FFFFFF;}
</style>
<path id="XMLID_5_" class="st0" d="M118.6,42.8c11.3-2.1,18.9-12.9,16.8-24.3c-2.1-11.4-12.9-18.9-24.3-16.8
	C99.8,3.7,92.3,14.6,94.3,25.9C96.4,37.3,107.3,44.8,118.6,42.8z"/>
<path id="XMLID_4_" class="st0" d="M95.8,103.8c-0.8,0-1.3,0-1.3,0c-9.4,0.5-41.9,3.9-60,31.8l12.2-4.8c0,0,19.5-20.4,47.8-20.2
	c0.5,0,0.9,0,1.3,0c0.4,0,0.9,0,1.3,0c28.3-0.2,47.8,20.2,47.8,20.2l12.2,4.8c-18-27.9-50.5-31.4-60-31.8
	C97.2,103.7,96.7,103.7,95.8,103.8z"/>
<path id="XMLID_3_" class="st0" d="M140.6,38.8c-4.8,2-8.7,7.7-10.4,14.4c-5.4,7.7-12.5,17.8-15.9,22.5c-3.4,1.3-13.2,2.6-22.2,3
	c-5.4,0.2-9.7,4.8-9.4,10.3c0.2,5.3,4.6,9.4,9.8,9.4c0.1,0,0.3,0,0.4,0c29.9-1.3,34.5-7.4,36.2-9.7c1.6-2.2,4.6-6.4,8-11.2
	c3.1,3.9,7.1,9.3,10.9,15.8c2.4,4,1.1,10-0.5,19c5.7,5.7,16.9,15.6,21.3,26.9c9.7,4.3,14.4,8,14.9,6.8c12.7-31.6-0.8-72.3-10.7-87.9
	C166.6,48,150.6,34.6,140.6,38.8z"/>
<path id="XMLID_2_" class="st0" d="M172.5,150.6c-11.7-5.7-22.8-11-31.9-15.2c-14.9-15.1-30.7-19.8-44.5-19.7c-0.1,0-0.2,0-0.3,0
	c-0.1,0-0.2,0-0.3,0c-13.8,0-29.5,4.7-44.5,19.8c-9.1,4.2-20.2,9.5-31.9,15.2c-3.8,1.8-6.2,5.6-6.2,9.8c0,4.2,2.3,8,6,10
	c14.3,7.4,54.6,26.4,56.3,27.2c1.5,0.7,3.1,1.1,4.7,1.1c4.2,0,8.1-2.3,10-6.4c2.6-5.5,0.2-12.1-5.3-14.8
	c-0.3-0.1-18.9-8.9-35.4-16.9c4.1-2,8-3.8,11.5-5.4c2.9,0.8,6.1,1.4,9.5,1.8c-0.7-1.8-1.2-3.6-1.5-5.5c-0.2-1.4-0.4-2.9-0.4-4.4
	c0-9.5,4.9-17.9,12.2-22.8c4.3-2.8,9.4-4.5,14.9-4.6c0.1,0,0.2,0,0.3,0c0.1,0,0.2,0,0.3,0c5.5,0.1,10.6,1.7,14.9,4.6
	c7.4,4.9,12.2,13.3,12.2,22.8c0,1.5-0.2,3-0.4,4.4c-0.3,1.9-0.8,3.8-1.5,5.5c3.4-0.4,6.6-1.1,9.5-1.8c3.6,1.7,7.4,3.5,11.5,5.4
	c-16.5,8-35.1,16.8-35.4,16.9c-5.5,2.6-7.9,9.2-5.3,14.8c1.9,4,5.9,6.4,10,6.4c1.6,0,3.2-0.3,4.7-1.1c1.7-0.8,41.9-19.8,56.3-27.2
	c3.7-1.9,6-5.8,6-10C178.7,156.2,176.3,152.4,172.5,150.6z"/>
<path id="XMLID_1_" class="st0" d="M115.1,157.7c1.4-2.6,2.3-5.4,2.6-8.5c0.1-0.7,0.1-1.4,0.1-2.1c0-8.7-5-16.1-12.3-19.7
	c-2.8-1.4-6-2.2-9.4-2.3c-0.1,0-0.2,0-0.3,0c-0.1,0-0.2,0-0.3,0c-3.4,0-6.6,0.9-9.4,2.3c-7.3,3.6-12.3,11-12.3,19.7
	c0,0.7,0,1.4,0.1,2.1c0.3,3.1,1.2,5.9,2.6,8.5c3.7,6.8,11,11.4,19.3,11.4C104.1,169.1,111.4,164.4,115.1,157.7z"/>
</svg>
