<?xml version="1.0" encoding="utf-8"?>
<!-- Generator: Adobe Illustrator 21.0.0, SVG Export Plug-In . SVG Version: 6.00 Build 0)  -->
<svg version="1.1" id="Capa_1" xmlns="http://www.w3.org/2000/svg" xmlns:xlink="http://www.w3.org/1999/xlink" x="0px" y="0px"
	 viewBox="0 0 400 400" style="enable-background:new 0 0 400 400;" xml:space="preserve">
<style type="text/css">
	.st0{fill:#FFFFFF;stroke:#FFFFFF;stroke-miterlimit:10;}
</style>
<path class="st0" d="M299.7,63.7c-4.1-64-82.8-59.7-99.9-58c-17-1.7-95.7-5.9-99.8,58c0,0-24,0.8-20.6,64
	c3.4,63.1,5.5,73.2,10.3,115c4.7,40.8,28.8,145.5,106.9,151.1v0.2c1.1,0,2.2,0,3.2-0.1c1.1,0,2.1,0.1,3.2,0.1v-0.2
	c78.1-5.5,102.2-110.3,106.9-151.1c4.8-41.9,6.9-51.9,10.3-115C323.7,64.5,299.7,63.7,299.7,63.7z M230.2,328.4
	c-6.9,3.1-15.1,3.8-15.1-9.4c0-13.1,23.4-19.4,23.4-19.4c-8.9-6.2-13.8-5-20.6-4.4c-4.8,0.4-13.3,1.2-17.9,1.6
	c-4.6-0.4-13.1-1.1-17.9-1.6c-6.9-0.6-11.7-1.9-20.6,4.4c0,0,23.4,6.2,23.4,19.4c0,13.1-8.3,12.5-15.1,9.4
	c-6.9-3.1-27.5-28.8-31.6-40.6c0,0,19.3-2.5,34.4-9.4c0,0,12.5-1.6,27.6-1.9c15.1,0.2,27.6,1.9,27.6,1.9c15.1,6.9,34.4,9.4,34.4,9.4
	C257.7,299.6,237,325.2,230.2,328.4z M286.5,250.2c-6.9,16.3-14.4,32.5-41.9,15.6c-21-12.9-38-13.8-44.8-13.4
	c-6.8-0.3-23.7,0.5-44.8,13.4c-27.5,16.9-35.1,0.6-41.9-15.6c-6.9-16.3-27.5-108.8-8.9-131.9c18.6-23.1,9.6-38.1,31.6-38.1
	c18.5,0,45.6,26.3,64,26.3c18.4,0,45.5-26.3,64-26.3c22,0,13.1,15,31.6,38.1C314.1,141.4,293.4,234,286.5,250.2z"/>
</svg>
