<?xml version="1.0" encoding="utf-8"?>
<!-- Generator: Adobe Illustrator 19.0.0, SVG Export Plug-In . SVG Version: 6.00 Build 0)  -->
<svg version="1.1" id="Capa_1" xmlns="http://www.w3.org/2000/svg" xmlns:xlink="http://www.w3.org/1999/xlink" x="0px" y="0px"
	 viewBox="0 0 3000 3000" style="enable-background:new 0 0 3000 3000;" xml:space="preserve">
<style type="text/css">
	.st0{fill:#FFFFFF;}
</style>
<g>
	<circle class="st0" cx="1539.4" cy="1313.3" r="41.7"/>
	<circle class="st0" cx="2152.7" cy="1968.2" r="79.4"/>
	<g>
		<path class="st0" d="M2287,2020.2h3.7c2.5,12.2,5.7,22.4,9.6,30.7c3.9,8.3,8.3,15.2,13,20.6c4.7,5.4,9.7,9.6,14.9,12.5
			c5.2,2.9,10.4,5.1,15.7,6.4c5.3,1.3,10.4,2.1,15.2,2.4c4.8,0.2,9.4,0.3,13.7,0.3c11.9,0,21.7-1.8,29.4-5.4
			c7.7-3.6,13.7-8.2,18.2-13.7c4.5-5.5,7.7-11.5,9.5-17.9c1.8-6.4,2.7-12.3,2.7-17.7c0-7.9-1.5-14.6-4.4-20.3
			c-2.9-5.6-6.6-10.4-11.1-14.3c-4.5-3.9-9.4-7.1-14.7-9.6c-5.3-2.5-10.3-4.4-15-5.7l-38.8-11.8c-18.2-5.6-32-13.1-41.4-22.3
			c-9.3-9.2-14-21.6-14-37.2c0-10.1,1.8-19.5,5.4-28.2c3.6-8.7,8.7-16.1,15.2-22.5c6.5-6.3,14.4-11.3,23.5-14.9
			c9.1-3.6,19.1-5.4,29.9-5.4c7.9,0,14.5,0.7,19.8,2c5.3,1.3,9.8,2.9,13.7,4.6c3.8,1.7,7.3,3.2,10.3,4.6c3,1.3,6.1,2,9.3,2
			c2.9,0,4.9-0.4,5.9-1.2c1-0.8,2.4-2.8,4.2-5.9h4.7v61.1h-4.1c-1.3-8.1-3.7-15.9-6.9-23.5c-3.3-7.5-7.5-14.2-12.7-19.9
			c-5.2-5.7-11.4-10.4-18.7-13.8c-7.3-3.5-15.8-5.2-25.5-5.2c-5.4,0-11.4,0.7-17.9,2.2c-6.5,1.5-12.6,4-18.2,7.6
			c-5.6,3.6-10.3,8.3-14,14.2c-3.7,5.9-5.6,13.3-5.6,22.3c0,7.2,1.5,13.3,4.4,18.4c2.9,5.1,6.7,9.3,11.3,12.8
			c4.6,3.5,9.8,6.4,15.5,8.8c5.7,2.4,11.5,4.5,17.4,6.2l40.9,12.8c4.3,1.4,9.7,3.2,16.2,5.4c6.5,2.3,12.9,5.6,19.1,10.1
			c6.2,4.5,11.5,10.5,15.9,17.9c4.4,7.4,6.6,16.9,6.6,28.4c0,10.6-2,20.7-5.9,30.2c-3.9,9.6-9.6,18-17.1,25.3
			c-7.4,7.3-16.4,13.2-27,17.6c-10.6,4.4-22.5,6.6-35.8,6.6c-4.7,0-8.9-0.1-12.5-0.2c-3.6-0.1-7-0.4-10.1-0.8
			c-3.2-0.5-6.3-1-9.5-1.5c-3.2-0.6-6.6-1.4-10.5-2.5c-4.5-1.3-9.3-2.9-14.5-4.7c-5.2-1.8-9.7-2.7-13.5-2.7c-3.4,0-5.7,0.7-6.9,2
			c-1.2,1.3-2.3,3.2-3.2,5.4h-5.1V2020.2z"/>
		<path class="st0" d="M2497,2088.1h37.5v-231H2497v-4.7h63.5c3.2,0,6.3-0.1,9.5-0.2c3.1-0.1,6.3-0.3,9.5-0.5c3.1,0,6.2,0,9.3-0.2
			c3-0.1,6.1-0.2,9.3-0.2c12.8,0,24.7,1.5,35.6,4.6c10.9,3,20.4,7.4,28.4,13c8,5.6,14.2,12.4,18.7,20.3c4.5,7.9,6.8,16.7,6.8,26.3
			c0,10.1-2.6,19.1-7.8,27c-5.2,7.9-12,14.5-20.6,19.9c-8.6,5.4-18.5,9.6-29.9,12.5c-11.4,2.9-23.2,4.4-35.6,4.4
			c-3.2,0-7.2-0.3-12.2-0.8c-5-0.6-9.3-1.2-13.2-1.9v111.4h37.5v4.7H2497V2088.1z M2568.3,1971.9c4.5,0.9,9.2,1.6,14.2,2
			c4.9,0.4,9.3,0.7,13.2,0.7c16.7,0,29.7-4.9,39-14.7c9.3-9.8,14-24.6,14-44.4c0-11.5-1.1-21-3.4-28.7c-2.3-7.7-5.8-13.8-10.6-18.4
			c-4.8-4.6-11.1-7.8-18.9-9.6c-7.8-1.8-17.1-2.7-27.9-2.7c-4.3,0-8.2,0.1-11.7,0.3c-3.5,0.2-6.1,0.5-7.9,0.7V1971.9z"/>
		<path class="st0" d="M2674.6,2088.1h29.7l91.2-241.8h8.1l91.9,241.8h30.1v4.7h-104v-4.7h37.5l-35.5-93.9h-78.3l-35.5,93.9h37.5
			v4.7h-72.6V2088.1z M2784.4,1891.2l-37.2,98.3h74.3L2784.4,1891.2z"/>
	</g>
	<path class="st0" d="M2638.3,1495.2c-13.2-2-21.8,18.5-37,36.4c-12.4,14.5-87.3,106.5-142.2,161.4c-25.5,25.5-68.1,56.2-84,33.7
		s2.3-69.8,46.3-148.2c42.3-75.4,144.2-233,144.2-233l-92.6-1.2l-19.8,37c0,0,0.7-41.8-75.4-51.6c-82-10.6-280.5,103.2-330.8,258
		c-29.1,4-52.9-16.5-51.6-45c1.4-30.7,11.6-61.9,46.3-80.7c40.2-21.8,164.1-92.6,124.4-129.7c-39.7-37-90,22.5-107.2,46.3
		c-17.2,23.8-37,54.2-46.3,64.8c-9.3,10.6-52.9,60.9-60.9,60.9s24.5-49.1,29.1-64.8c8.3-28.1,17.2-86-23.8-104.5
		c-48-21.7-153.5-9.3-153.5-9.3s177.3-123,231.5-189.2c54.2-66.2,131-178.6,88.6-207.7c-52.1-35.8-158.8,63.5-199.8,100.6
		c-41,37-146.9,178.6-221,295.1c-22.5-2.6-83.4-2.6-83.4-2.6v18.5l71.4,4c0,0-46.3,76.7-87.3,149.5c-41,72.8-75.4,156.1-131,191.8
		c-55.6,35.7-82,58.2-104.5,31.8c-22.5-26.5,55.7-141.7,83.4-186.6c31.8-51.6,88.6-137.6,88.6-137.6s-42.3,15.9-67.5-39.7
		c-66.2,99.2-123.7,198.6-170.7,252.7c-41.1,47.4-84.7,100.6-119.1,108.5c-34.4,7.9-68.8,7.9-31.8-62.2
		c37-70.1,97.9-149.5,111.1-177.3c13.2-27.8,29.1-109.8-22.5-141.6c-51.6-31.8-99.2-19.8-207.7,104.5
		c54-84.6,186.2-305.7,215.2-354.2c81.8,35,193.9,69.3,327.9-3c150.8-81.4,188.5-160.8,275.9-196.5c87.3-35.7,129-37.7,222.3-2
		c-29.8-37.7-162.7-95.3-319.5,9.9s-198.5,254-478.3,180.6c-37.7-9.9-127-41.7-170.7-142.9c-7.9-49.6-23.8-93.3-37.7-121.1
		c-13.9-27.8-25.8-61.5-109.2-51.6c-54.6-41.7-226.3-43.7-311.6,75.4c-124.6,173.9,9.9,363.2,35.7,398.9
		c25.8,35.7,172.7,214.3,45.6,402.9c-91.9,136.4-233.5,155.4-316.2,84.9c120.7-40.5,202.1-135,236.8-203.9
		c50.3-99.9,58.5-265.7-35.7-315.6c-170.7-90.3-297.5,153-299.7,152.8c-129-13.9-247.5,111.2-249.1,190.5
		c-1.7,81.4,30.8,194.5,219.3,196.5c29.2,0.3,57.2-2.6,83.7-8.2c47.5,40.3,101.7,60.1,132.7,61.8c73.4,4,200.4-21.8,319.5-216.3
		s-4-365.2-33.7-402.9c-29.8-37.7-150.8-176.6-119.1-277.9c31.8-101.2,152.8-154.8,230.2-87.3c17.9,71.4,27.8,101.2,85.3,113.1
		c57.6,11.9,103.2,11.9,103.2,11.9s34.9,69.8,95.4,114.6L772.7,1740h88.6c0,0,96.6-174.6,132.3-226.3
		c35.7-51.6,132.3-146.9,156.1-158.8c23.8-11.9,100.6-11.9,55.6,46.3c-45,58.2-154.8,191.8-133.6,284.5
		c21.2,92.6,110.6,70.1,136.3,52.9c39.7-26.5,93.9-96.6,93.9-96.6s-15.9,63.5,26.5,95.3c42.3,31.8,100.6,23.8,153.5-29.1
		c-43.7,105.8-128.3,251.4-281.8,340c-94,54.3-181.3,25.1-181.3,25.1s41,31.8,112.5,18.5c0,0,133.6-11.9,238.2-121.7
		c104.5-109.8,176-209.1,223.6-291.1c47.6-82,191.8-336.1,191.8-336.1s156.7-10.3,149.5,19.8c-14.6,60.9-219.6,369.1-219.6,369.1
		h99.2c0,0,92.6-146.9,113.8-173.3c21.2-26.5,45-45,45-45s-10.6,61.5,17.2,86c21.2,18.7,51.6,14.6,51.6,14.6s-10.6,86,37,120.4
		c34.6,25,81.3,29.6,133.6-20.5c31.8-32.7,39.7-42.7,55.8-80.2c-30,38.6-66.7,82.2-95.5,94.1c-26.8,11.1-60.9,7.9-67.5-18.5
		c-6.6-26.5-9.3-56.9,55.6-158.8c64.8-101.9,165.4-186.6,218.3-194.5c52.9-7.9,58.2,38.4,58.2,38.4l-113.8,170.7
		c-14.6,23.2-21.1,50.7-21.8,65.8c-0.2,15.3-2.5,64.9,19.2,94.3c26.5,35.7,62.2,45,109.8,11.9c44.7-31,178.5-197,187.2-209.7
		C2629,1511.1,2644.4,1496.1,2638.3,1495.2z M1915.9,1103.6c34.4-49,112.5-142.9,157.4-160.1c45-17.2,56.9,21.2,23.8,71.4
		c-33.1,50.3-154.8,194.5-291.1,280.5C1806,1295.4,1881.5,1152.5,1915.9,1103.6z M92.6,1587.2c-18.9-115.1,119.1-196.5,209.4-207.4
		c0,0-74.4,157.8,52.6,326.5C265.3,1718.2,114.7,1722.1,92.6,1587.2z M340.7,1418.5c2.8-13.3,7.1-22.7,10.9-34.7
		c28.8,0,50.6,16.9,74.4,35.7c-6-31.8-43.3-55.8-67.5-63.5c49.6-112.1,147.7-167.2,210.4-149.8c71.4,19.8,138.9,131,61.5,281.8
		s-208.4,204.4-240.1,212.4C390.3,1700.3,307,1581.2,340.7,1418.5z"/>
</g>
</svg>
