<?xml version="1.0" encoding="utf-8"?>
<!-- Generator: Adobe Illustrator 19.0.0, SVG Export Plug-In . SVG Version: 6.00 Build 0)  -->
<svg version="1.1" id="Capa_1" xmlns="http://www.w3.org/2000/svg" xmlns:xlink="http://www.w3.org/1999/xlink" x="0px" y="0px"
	 viewBox="0 0 800 400" style="enable-background:new 0 0 800 400;" xml:space="preserve">
<g id="XMLID_13_">
	<circle id="XMLID_11_" cx="412.3" cy="170.2" r="11.5"/>
	<circle id="XMLID_10_" cx="581.1" cy="350.4" r="21.8"/>
	<g id="XMLID_19_">
		<path id="XMLID_26_" d="M618,364.7h1c0.7,3.3,1.6,6.2,2.6,8.5c1.1,2.3,2.3,4.2,3.6,5.7c1.3,1.5,2.7,2.6,4.1,3.4
			c1.4,0.8,2.9,1.4,4.3,1.8c1.5,0.4,2.9,0.6,4.2,0.7c1.3,0.1,2.6,0.1,3.8,0.1c3.3,0,6-0.5,8.1-1.5c2.1-1,3.8-2.2,5-3.8
			c1.2-1.5,2.1-3.2,2.6-4.9c0.5-1.8,0.7-3.4,0.7-4.9c0-2.2-0.4-4-1.2-5.6c-0.8-1.5-1.8-2.9-3.1-3.9s-2.6-2-4-2.6
			c-1.5-0.7-2.8-1.2-4.1-1.6l-10.7-3.3c-5-1.5-8.8-3.6-11.4-6.1c-2.6-2.5-3.9-5.9-3.9-10.2c0-2.8,0.5-5.4,1.5-7.8
			c1-2.4,2.4-4.4,4.2-6.2c1.8-1.7,4-3.1,6.5-4.1c2.5-1,5.3-1.5,8.2-1.5c2.2,0,4,0.2,5.4,0.6c1.5,0.4,2.7,0.8,3.8,1.3
			c1.1,0.5,2,0.9,2.8,1.3c0.8,0.4,1.7,0.6,2.6,0.6c0.8,0,1.3-0.1,1.6-0.3c0.3-0.2,0.7-0.8,1.2-1.6h1.3v16.8h-1.1
			c-0.4-2.2-1-4.4-1.9-6.5s-2.1-3.9-3.5-5.5c-1.4-1.6-3.1-2.9-5.2-3.8c-2-1-4.4-1.4-7-1.4c-1.5,0-3.1,0.2-4.9,0.6
			c-1.8,0.4-3.5,1.1-5,2.1c-1.5,1-2.8,2.3-3.9,3.9c-1,1.6-1.5,3.7-1.5,6.1c0,2,0.4,3.7,1.2,5.1c0.8,1.4,1.8,2.6,3.1,3.5
			c1.3,1,2.7,1.8,4.3,2.4c1.6,0.7,3.2,1.2,4.8,1.7l11.2,3.5c1.2,0.4,2.7,0.9,4.5,1.5c1.8,0.6,3.5,1.6,5.3,2.8
			c1.7,1.2,3.2,2.9,4.4,4.9c1.2,2,1.8,4.6,1.8,7.8c0,2.9-0.5,5.7-1.6,8.3c-1.1,2.6-2.6,5-4.7,7c-2,2-4.5,3.6-7.4,4.8
			c-2.9,1.2-6.2,1.8-9.8,1.8c-1.3,0-2.4,0-3.4,0c-1,0-1.9-0.1-2.8-0.2c-0.9-0.1-1.7-0.3-2.6-0.4c-0.9-0.2-1.8-0.4-2.9-0.7
			c-1.2-0.4-2.6-0.8-4-1.3c-1.4-0.5-2.7-0.7-3.7-0.7c-0.9,0-1.6,0.2-1.9,0.6c-0.3,0.4-0.6,0.9-0.9,1.5H618V364.7z"/>
		<path id="XMLID_23_" d="M675.8,383.4h10.3v-63.6h-10.3v-1.3h17.5c0.9,0,1.7,0,2.6,0c0.9,0,1.7-0.1,2.6-0.1c0.9,0,1.7,0,2.6,0
			c0.8,0,1.7,0,2.6,0c3.5,0,6.8,0.4,9.8,1.3c3,0.8,5.6,2,7.8,3.6c2.2,1.5,3.9,3.4,5.2,5.6c1.2,2.2,1.9,4.6,1.9,7.2
			c0,2.8-0.7,5.3-2.1,7.4c-1.4,2.2-3.3,4-5.7,5.5c-2.4,1.5-5.1,2.6-8.2,3.4c-3.1,0.8-6.4,1.2-9.8,1.2c-0.9,0-2-0.1-3.3-0.2
			c-1.4-0.2-2.6-0.3-3.6-0.5v30.7h10.3v1.3h-29.9V383.4z M695.4,351.4c1.2,0.2,2.5,0.4,3.9,0.6c1.4,0.1,2.6,0.2,3.6,0.2
			c4.6,0,8.2-1.3,10.7-4c2.6-2.7,3.9-6.8,3.9-12.2c0-3.2-0.3-5.8-0.9-7.9c-0.6-2.1-1.6-3.8-2.9-5.1c-1.3-1.3-3.1-2.2-5.2-2.6
			c-2.1-0.5-4.7-0.7-7.7-0.7c-1.2,0-2.2,0-3.2,0.1c-1,0.1-1.7,0.1-2.2,0.2V351.4z"/>
		<path id="XMLID_20_" d="M724.7,383.4h8.2l25.1-66.5h2.2l25.3,66.5h8.3v1.3h-28.6v-1.3h10.3l-9.8-25.8h-21.6l-9.8,25.8h10.3v1.3
			h-20V383.4z M754.9,329.2l-10.2,27h20.4L754.9,329.2z"/>
	</g>
	<path id="XMLID_14_" d="M714.7,220.2c-3.6-0.5-6,5.1-10.2,10c-3.4,4-24,29.3-39.1,44.4c-7,7-18.8,15.5-23.1,9.3
		c-4.4-6.2,0.6-19.2,12.7-40.8c11.7-20.8,39.7-64.1,39.7-64.1l-25.5-0.3l-5.5,10.2c0,0,0.2-11.5-20.8-14.2
		c-22.6-2.9-77.2,28.4-91,71c-8,1.1-14.6-4.6-14.2-12.4c0.4-8.4,3.2-17,12.7-22.2c11.1-6,45.1-25.5,34.2-35.7
		c-10.9-10.2-24.8,6.2-29.5,12.7c-4.7,6.6-10.2,14.9-12.7,17.8c-2.5,2.9-14.6,16.7-16.7,16.7c-2.2,0,6.7-13.5,8-17.8
		c2.3-7.7,4.7-23.7-6.6-28.8c-13.2-6-42.2-2.5-42.2-2.5s48.8-33.9,63.7-52.1c14.9-18.2,36-49.2,24.4-57.2
		c-14.3-9.9-43.7,17.5-55,27.7c-11.3,10.2-40.4,49.2-60.8,81.2c-6.2-0.7-22.9-0.7-22.9-0.7v5.1l19.7,1.1c0,0-12.7,21.1-24,41.1
		c-11.3,20-20.8,43-36,52.8c-15.3,9.8-22.6,16-28.8,8.7c-6.2-7.3,15.3-39,22.9-51.3c8.7-14.2,24.4-37.9,24.4-37.9
		s-11.7,4.4-18.6-10.9c-18.2,27.3-34.1,54.6-47,69.5c-11.3,13-23.3,27.7-32.8,29.9c-9.5,2.2-18.9,2.2-8.7-17.1
		c10.2-19.3,26.9-41.1,30.6-48.8c3.6-7.6,8-30.2-6.2-39c-14.2-8.7-27.3-5.5-57.2,28.8c14.9-23.3,51.2-84.1,59.2-97.5
		c22.5,9.6,53.4,19.1,90.2-0.8C463.7,83.9,474,62,498.1,52.2c24-9.8,35.5-10.4,61.2-0.5c-8.2-10.4-44.8-26.2-87.9,2.7
		s-54.6,69.9-131.6,49.7c-10.4-2.7-35-11.5-47-39.3c-2.2-13.7-6.6-25.7-10.4-33.3c-3.8-7.6-7.1-16.9-30-14.2
		c-15-11.5-62.3-12-85.7,20.8c-34.3,47.9,2.7,99.9,9.8,109.8c7.1,9.8,47.5,59,12.6,110.9c-25.3,37.5-64.3,42.8-87,23.4
		c33.2-11.2,55.6-37.2,65.2-56.1c13.8-27.5,16.1-73.1-9.8-86.8c-47-24.8-81.9,42.1-82.5,42.1c-35.5-3.8-68.1,30.6-68.5,52.4
		c-0.5,22.4,8.5,53.5,60.3,54.1c8,0.1,15.7-0.7,23-2.2c13.1,11.1,28,16.5,36.5,17c20.2,1.1,55.2-6,87.9-59.5s-1.1-100.5-9.3-110.9
		c-8.2-10.4-41.5-48.6-32.8-76.5c8.7-27.9,42.1-42.6,63.4-24c4.9,19.7,7.6,27.9,23.5,31.1c15.8,3.3,28.4,3.3,28.4,3.3
		s9.6,19.2,26.2,31.5L201.3,287.6h24.4c0,0,26.6-48.1,36.4-62.3c9.8-14.2,36.4-40.4,43-43.7c6.6-3.3,27.7-3.3,15.3,12.7
		c-12.4,16-42.6,52.8-36.8,78.3c5.8,25.5,30.4,19.3,37.5,14.6c10.9-7.3,25.9-26.6,25.9-26.6s-4.4,17.5,7.3,26.2
		c11.7,8.7,27.7,6.6,42.2-8c-12,29.1-35.3,69.2-77.6,93.6c-25.9,14.9-49.9,6.9-49.9,6.9s11.3,8.7,30.9,5.1c0,0,36.8-3.3,65.5-33.5
		c28.8-30.2,48.4-57.5,61.5-80.1c13.1-22.6,52.8-92.5,52.8-92.5s43.1-2.8,41.1,5.5c-4,16.7-60.4,101.6-60.4,101.6h27.3
		c0,0,25.5-40.4,31.3-47.7c5.8-7.3,12.4-12.4,12.4-12.4s-2.9,16.9,4.7,23.7c5.8,5.2,14.2,4,14.2,4s-2.9,23.7,10.2,33.1
		c9.5,6.9,22.4,8.1,36.8-5.6c8.7-9,10.9-11.7,15.4-22.1c-8.3,10.6-18.4,22.6-26.3,25.9c-7.4,3.1-16.7,2.2-18.6-5.1
		c-1.8-7.3-2.5-15.7,15.3-43.7c17.8-28,45.5-51.3,60.1-53.5s16,10.6,16,10.6l-31.3,47c-4,6.4-5.8,13.9-6,18.1
		c-0.1,4.2-0.7,17.9,5.3,25.9c7.3,9.8,17.1,12.4,30.2,3.3c12.3-8.5,49.1-54.2,51.5-57.7C712.1,224.6,716.4,220.5,714.7,220.2z
		 M515.9,112.5c9.5-13.5,30.9-39.3,43.3-44.1c12.4-4.7,15.7,5.8,6.6,19.7c-9.1,13.8-42.6,53.5-80.1,77.2
		C485.7,165.3,506.4,125.9,515.9,112.5z M14.2,245.5C9,213.9,47,191.5,71.8,188.5c0,0-20.5,43.4,14.5,89.8
		C61.7,281.6,20.3,282.7,14.2,245.5z M82.5,199.1c0.8-3.7,1.9-6.2,3-9.6c7.9,0,13.9,4.6,20.5,9.8c-1.6-8.7-11.9-15.3-18.6-17.5
		c13.7-30.9,40.6-46,57.9-41.2c19.7,5.5,38.2,36,16.9,77.6c-21.3,41.5-57.3,56.3-66.1,58.4C96.1,276.7,73.2,243.9,82.5,199.1z"/>
</g>
</svg>
